<svg id="cart" xmlns="http://www.w3.org/2000/svg" width="24.105" height="24.102" viewBox="0 0 24.105 24.102">
  <g id="Group_4009" data-name="Group 4009">
    <g id="Group_4008" data-name="Group 4008">
      <g id="Group_4007" data-name="Group 4007">
        <path id="Path_1174" data-name="Path 1174" d="M8.51,20.487a1.808,1.808,0,1,0,1.807,1.808A1.808,1.808,0,0,0,8.51,20.487Zm10.777,0a1.808,1.808,0,1,0,1.807,1.808A1.807,1.807,0,0,0,19.287,20.487ZM1.277,0H0A1.31,1.31,0,0,1,.012.217V2.411H1.265a2.382,2.382,0,0,1,1.71.711,2.857,2.857,0,0,1,.3.35,2.485,2.485,0,0,1,.41,1.362v4.3h.006v4.116a4.823,4.823,0,0,0,4.822,4.825h10.77a4.824,4.824,0,0,0,4.822-4.825V6.73H21.7v6.522a2.417,2.417,0,0,1-2.413,2.414H8.513A2.417,2.417,0,0,1,6.1,13.252V9.141H16.878V6.73H6.095V4.821A4.818,4.818,0,0,0,1.277,0Z" transform="translate(0 0)" fill="#fff"/>
      </g>
    </g>
  </g>
</svg>
