<svg id="cart_p" xmlns="http://www.w3.org/2000/svg" width="12.484" height="12.483" viewBox="0 0 12.484 12.483">
  <g id="Group_4009" data-name="Group 4009">
    <g id="Group_4008" data-name="Group 4008">
      <g id="Group_4007" data-name="Group 4007">
        <path id="Path_1174" data-name="Path 1174" d="M4.407,10.61a.936.936,0,1,0,.936.936A.936.936,0,0,0,4.407,10.61Zm5.582,0a.936.936,0,1,0,.936.936A.936.936,0,0,0,9.989,10.61ZM.661,0H0A.678.678,0,0,1,.006.112V1.248H.655a1.234,1.234,0,0,1,.886.368A1.48,1.48,0,0,1,1.7,1.8a1.287,1.287,0,0,1,.212.705V4.732h0V6.863a2.5,2.5,0,0,0,2.5,2.5H9.987a2.5,2.5,0,0,0,2.5-2.5V3.486H11.237V6.863a1.252,1.252,0,0,1-1.249,1.25H4.409A1.252,1.252,0,0,1,3.16,6.863V4.734H8.741V3.486H3.156V2.5A2.5,2.5,0,0,0,.661,0Z" transform="translate(0 0)" fill="#949494"/>
      </g>
    </g>
  </g>
</svg>
