<svg id="cart-2" xmlns="http://www.w3.org/2000/svg" width="17.145" height="17.145" viewBox="0 0 17.145 17.145">
  <path id="Vector" d="M0,0H1.243A1.322,1.322,0,0,1,2.557,1.429L1.964,8.544a2,2,0,0,0,1.993,2.164h7.608a2.055,2.055,0,0,0,2.007-1.864l.386-5.358a1.981,1.981,0,0,0-2.007-2.15H2.729" transform="translate(1.429 1.429)" fill="none" stroke="#fff" stroke-linecap="round" stroke-linejoin="round" stroke-width="1.4"/>
  <path id="Vector-2" data-name="Vector" d="M1.786.893A.893.893,0,1,1,.893,0,.893.893,0,0,1,1.786.893Z" transform="translate(10.715 13.93)" fill="none" stroke="#fff" stroke-linecap="round" stroke-linejoin="round" stroke-width="1"/>
  <path id="Vector-3" data-name="Vector" d="M1.786.893A.893.893,0,1,1,.893,0,.893.893,0,0,1,1.786.893Z" transform="translate(5 13.93)" fill="none" stroke="#fff" stroke-linecap="round" stroke-linejoin="round" stroke-width="1"/>
  <path id="Vector-4" data-name="Vector" d="M0,0H8.572" transform="translate(6.429 5.715)" fill="none" stroke="#fff" stroke-linecap="round" stroke-linejoin="round" stroke-width="1.4"/>
  <path id="Vector-5" data-name="Vector" d="M0,0H17.145V17.145H0Z" fill="none" opacity="0"/>
</svg>
