<svg xmlns="http://www.w3.org/2000/svg" width="23.729" height="22.436" viewBox="0 0 23.729 22.436">
  <g id="check" transform="translate(-3.308 -4)">
    <g id="_17-scure_payment" data-name="17-scure payment" transform="translate(3.308 4)">
      <path id="Path_4434" data-name="Path 4434" d="M21.492,9.936a.935.935,0,0,1-.1,1.318l-6.544,5.609a.942.942,0,0,1-1.271-.047l-2.8-2.8A.939.939,0,0,1,12.1,12.684l2.187,2.2,5.889-5.048A.935.935,0,0,1,21.492,9.936ZM15.5,26.379a.982.982,0,0,1-.654,0C-.719,20.528,3.955,4.813,4,4.654A.935.935,0,0,1,4.89,4H25.456a.935.935,0,0,1,.888.654C26.39,4.813,31.065,20.528,15.5,26.379ZM24.736,5.87H5.61C4.89,8.674,3.16,19.789,15.173,24.5,27.213,19.78,25.456,8.674,24.736,5.87Z" transform="translate(-3.308 -4)" fill="#121212"/>
    </g>
  </g>
</svg>
