<svg id="checkS" xmlns="http://www.w3.org/2000/svg" width="98.982" height="98.982" viewBox="0 0 98.982 98.982">
  <path id="Path_29561" data-name="Path 29561" d="M121.385,107.083h0a3.563,3.563,0,0,1-2.736-1.243L99.872,85.447a3.7,3.7,0,0,1,5.471-4.974l16.165,17.533,44.766-44.642a3.606,3.606,0,0,1,5.223,0,3.715,3.715,0,0,1,0,5.223L124,105.964A3.387,3.387,0,0,1,121.385,107.083Z" transform="translate(-75.375 -39.81)" fill="#ffad1e"/>
  <path id="Path_29562" data-name="Path 29562" d="M49.491,98.982A49.491,49.491,0,1,1,49.491,0a3.664,3.664,0,0,1,3.73,3.73,3.664,3.664,0,0,1-3.73,3.73,42.03,42.03,0,1,0,42.03,42.03,3.73,3.73,0,1,1,7.461,0A49.62,49.62,0,0,1,49.491,98.982Z" fill="#ffad1e"/>
</svg>
