<svg xmlns="http://www.w3.org/2000/svg" width="28.949" height="23.9" viewBox="0 0 28.949 23.9">
  <g id="delivery" transform="translate(-4.995 -12.855)">
    <g id="Group" transform="translate(4.995 12.855)">
      <path id="Compound_Path" data-name="Compound Path" d="M21.078,17.951H17.894A6.529,6.529,0,0,0,5,19.527a6.368,6.368,0,0,0,1.287,3.827v8.652a1.608,1.608,0,0,0,1.608,1.608H8.6a3.474,3.474,0,0,0,6.915,0h9.167a3.474,3.474,0,0,0,6.915,0h.74a1.608,1.608,0,0,0,1.608-1.608v-3.8a2.573,2.573,0,0,0-2.573-2.573h-1.19l-1.447-3.409a.611.611,0,0,0-.579-.418h-4.5V20.524A2.573,2.573,0,0,0,21.078,17.951Zm-9.52-3.7a5.275,5.275,0,1,1-5.275,5.275,5.275,5.275,0,0,1,5.275-5.275Zm.515,21.1a2.219,2.219,0,1,1,2.187-2.219,2.219,2.219,0,0,1-2.187,2.219Zm9.006-3.023H15.45a3.474,3.474,0,0,0-6.786,0H7.891a.289.289,0,0,1-.322-.322V24.673a6.368,6.368,0,0,0,3.988,1.383,6.529,6.529,0,0,0,6.529-6.529v-.289h2.991a1.287,1.287,0,0,1,1.287,1.287v11.8Zm7.076,3.023a2.219,2.219,0,1,1,2.187-2.219,2.219,2.219,0,0,1-2.187,2.219ZM27.7,23.1l1.447,3.409a.643.643,0,0,0,.611.418h1.608a1.287,1.287,0,0,1,1.287,1.287v3.8a.322.322,0,0,1-.322.322h-.8a3.474,3.474,0,0,0-6.786,0H23.651V23.1Z" transform="translate(-4.995 -12.855)" fill="#121212"/>
      <path id="Path" d="M24.043,26.646h2.573a.643.643,0,1,0,0-1.287h-1.93V23.043a.643.643,0,1,0-1.287,0V26A.643.643,0,0,0,24.043,26.646Z" transform="translate(-17.48 -19.33)" fill="#121212"/>
    </g>
  </g>
</svg>
