<svg xmlns="http://www.w3.org/2000/svg" width="13.308" height="15.599" viewBox="0 0 13.308 15.599">
  <g id="lock" transform="translate(0.5 0.5)">
    <path id="path" d="M406.308,606v3.287a2.555,2.555,0,0,1-2.465,2.637h-7.377A2.555,2.555,0,0,1,394,609.287V606" transform="translate(-394 -597.325)" fill="none" stroke="#ffad1e" stroke-linecap="round" stroke-linejoin="round" stroke-width="1"/>
    <path id="path-2" data-name="path" d="M394,600.777a2.555,2.555,0,0,1,2.465-2.636h7.377a2.555,2.555,0,0,1,2.465,2.636" transform="translate(-394 -594.638)" fill="none" stroke="#ffad1e" stroke-linecap="round" stroke-linejoin="round" stroke-width="1"/>
    <ellipse id="ellipse" cx="1.239" cy="1.325" rx="1.239" ry="1.325" transform="translate(4.916 6.691)" fill="none" stroke="#ffad1e" stroke-linecap="round" stroke-linejoin="round" stroke-width="1"/>
    <path id="path-3" data-name="path" d="M399.421,595.832a2.824,2.824,0,1,1,5.636,0" transform="translate(-396.084 -592.819)" fill="none" stroke="#ffad1e" stroke-linecap="round" stroke-linejoin="round" stroke-width="1"/>
    <line id="line" y2="1.516" transform="translate(6.154 9.341)" fill="none" stroke="#ffad1e" stroke-linecap="round" stroke-linejoin="round" stroke-width="1"/>
  </g>
</svg>
