<svg id="logout" xmlns="http://www.w3.org/2000/svg" width="14.163" height="14.158" viewBox="0 0 14.163 14.158">
  <g id="Layer_52" data-name="Layer 52">
    <path id="Path_16444" data-name="Path 16444" d="M13.327,11.911v2.124A2.124,2.124,0,0,1,11.2,16.158H4.124A2.124,2.124,0,0,1,2,14.035V4.124A2.124,2.124,0,0,1,4.124,2H11.2a2.124,2.124,0,0,1,2.124,2.124V6.248a.708.708,0,0,1-1.416,0V4.124a.708.708,0,0,0-.708-.708H4.124a.708.708,0,0,0-.708.708v9.911a.708.708,0,0,0,.708.708H11.2a.708.708,0,0,0,.708-.708V11.911a.708.708,0,1,1,1.416,0Zm2.626-3.334L14.537,7.161a.711.711,0,1,0-1.005,1.005l.212.205H9.079a.708.708,0,1,0,0,1.416h4.665l-.212.205A.711.711,0,1,0,14.537,11l1.416-1.416a.708.708,0,0,0,0-1.005Z" transform="translate(-2 -2)" fill="#d51515"/>
  </g>
</svg>
