<svg xmlns="http://www.w3.org/2000/svg" width="56.124" height="39.998" viewBox="0 0 56.124 39.998">
  <g id="message-w" transform="translate(-1 -5.31)">
    <path id="Path_29592" data-name="Path 29592" d="M20.415,25.018A26.95,26.95,0,0,1,12.3,23.766a1.871,1.871,0,0,1-1.24-2.49h0a1.871,1.871,0,0,1,2.357-1.066,23.16,23.16,0,0,0,13.937,0,1.871,1.871,0,0,1,2.357,1.066h0a1.871,1.871,0,0,1-1.2,2.488,26.958,26.958,0,0,1-8.1,1.253Z" transform="translate(8.647 12.881)" fill="#ffad1e"/>
    <path id="Path_29593" data-name="Path 29593" d="M50.576,45.307H7.548A6.548,6.548,0,0,1,1,38.76v-26.9A6.548,6.548,0,0,1,7.548,5.31H50.576a6.548,6.548,0,0,1,6.548,6.548v26.9a6.548,6.548,0,0,1-6.548,6.548ZM7.548,9.052a2.806,2.806,0,0,0-2.806,2.806v26.9a2.806,2.806,0,0,0,2.806,2.806H50.576a2.806,2.806,0,0,0,2.806-2.806v-26.9a2.806,2.806,0,0,0-2.806-2.806Z" transform="translate(0 0)" fill="#fff"/>
    <path id="Path_29594" data-name="Path 29594" d="M27.738,22.051a8.4,8.4,0,0,1-4.172-1.1L2.52,9.723,4.279,6.43l21.1,11.225a4.677,4.677,0,0,0,4.64,0L51.16,6.43l1.759,3.293-21.1,11.225a8.25,8.25,0,0,1-4.078,1.1Z" transform="translate(1.323 0.976)" fill="#fff"/>
  </g>
</svg>
