<svg xmlns="http://www.w3.org/2000/svg" width="188.508" height="134.344" viewBox="0 0 188.508 134.344">
  <g id="message-3" transform="translate(49.254 -5596.829)">
    <g id="Layer_2" data-name="Layer 2" transform="translate(-50.254 5591.519)" opacity="0.03">
      <path id="Path_29592" data-name="Path 29592" d="M42.787,36.61a90.518,90.518,0,0,1-27.254-4.2,6.284,6.284,0,0,1-4.164-8.363h0a6.284,6.284,0,0,1,7.917-3.582,77.791,77.791,0,0,0,46.813,0,6.284,6.284,0,0,1,7.917,3.582h0A6.284,6.284,0,0,1,70,32.4a90.547,90.547,0,0,1-27.208,4.21Z" transform="translate(52.467 78.16)" fill="#ff4747"/>
      <path id="Path_29593" data-name="Path 29593" d="M167.516,139.654H22.993A21.993,21.993,0,0,1,1,117.661V27.3A21.993,21.993,0,0,1,22.993,5.31H167.516A21.993,21.993,0,0,1,189.508,27.3v90.358a21.993,21.993,0,0,1-21.993,21.993ZM22.993,17.877A9.425,9.425,0,0,0,13.567,27.3v90.358a9.425,9.425,0,0,0,9.425,9.425H167.516a9.425,9.425,0,0,0,9.425-9.425V27.3a9.425,9.425,0,0,0-9.425-9.425Z" transform="translate(0 0)" fill="#fff"/>
      <path id="Path_29594" data-name="Path 29594" d="M87.223,58.9a28.213,28.213,0,0,1-14.012-3.707L2.52,17.489,8.427,6.43l70.879,37.7a15.709,15.709,0,0,0,15.583,0l71-37.7L171.8,17.489l-70.879,37.7a27.71,27.71,0,0,1-13.7,3.707Z" transform="translate(8.031 5.918)" fill="#fff"/>
    </g>
  </g>
</svg>
