<svg xmlns="http://www.w3.org/2000/svg" width="23.097" height="16.46" viewBox="0 0 23.097 16.46">
  <g id="message-red" transform="translate(-1 -5.31)">
    <path id="Path_29592" data-name="Path 29592" d="M14.833,22.126a11.091,11.091,0,0,1-3.339-.515.77.77,0,0,1-.51-1.025h0a.77.77,0,0,1,.97-.439,9.531,9.531,0,0,0,5.736,0,.77.77,0,0,1,.97.439h0a.77.77,0,0,1-.493,1.024,11.094,11.094,0,0,1-3.334.516Z" transform="translate(-2.285 -3.404)" fill="#cd0303"/>
    <path id="Path_29593" data-name="Path 29593" d="M21.4,21.771H3.695A2.7,2.7,0,0,1,1,19.076V8A2.7,2.7,0,0,1,3.695,5.31H21.4A2.7,2.7,0,0,1,24.1,8V19.076A2.7,2.7,0,0,1,21.4,21.771ZM3.695,6.85A1.155,1.155,0,0,0,2.54,8V19.076a1.155,1.155,0,0,0,1.155,1.155H21.4a1.155,1.155,0,0,0,1.155-1.155V8A1.155,1.155,0,0,0,21.4,6.85Z" transform="translate(0 0)" fill="#cd0303"/>
    <path id="Path_29594" data-name="Path 29594" d="M12.9,12.859a3.457,3.457,0,0,1-1.717-.454L2.52,7.785,3.244,6.43l8.684,4.619a1.925,1.925,0,0,0,1.909,0l8.7-4.619.724,1.355L14.577,12.4a3.4,3.4,0,0,1-1.678.454Z" transform="translate(-0.35 -0.258)" fill="#cd0303"/>
  </g>
</svg>
