<svg id="money" xmlns="http://www.w3.org/2000/svg" width="43.337" height="39.732" viewBox="0 0 43.337 39.732">
  <path id="Path_29595" data-name="Path 29595" d="M41.367,48.88H1.97A1.976,1.976,0,0,1,0,46.911V25.242a1.976,1.976,0,0,1,1.97-1.97h39.4a1.976,1.976,0,0,1,1.97,1.97V46.911A1.976,1.976,0,0,1,41.367,48.88Z" transform="translate(0 -23.272)" fill="#0e9347"/>
  <path id="Path_29596" data-name="Path 29596" d="M261.187,232.727a6.592,6.592,0,0,0-5.516,2.856,7.347,7.347,0,0,0-3.349-.886,6.891,6.891,0,0,0-6.8,5.91h20.585a2,2,0,0,0,1.97-1.674A7.016,7.016,0,0,0,261.187,232.727Z" transform="translate(-224.745 -214.998)" fill="#0d8944"/>
  <path id="Path_29597" data-name="Path 29597" d="M58.731,68.215H27.213a3.951,3.951,0,0,0-3.94-3.94V50.486a3.951,3.951,0,0,0,3.94-3.94H58.731a3.951,3.951,0,0,0,3.94,3.94V64.275A3.951,3.951,0,0,0,58.731,68.215Z" transform="translate(-21.303 -44.576)" fill="#3bb54a"/>
  <g id="Group_26811" data-name="Group 26811" transform="translate(9.008 4.673)">
    <path id="Path_29598" data-name="Path 29598" d="M267.578,232.727a6.592,6.592,0,0,0-5.516,2.856,7.347,7.347,0,0,0-3.349-.886,6.766,6.766,0,0,0-6.205,3.94h16.055a3.931,3.931,0,0,1,3.841-3.94A7.12,7.12,0,0,0,267.578,232.727Z" transform="translate(-240.144 -219.671)" fill="#0e9347"/>
    <circle id="Ellipse_6286" data-name="Ellipse 6286" cx="8" cy="8" r="8" transform="translate(3.548 0.059)" fill="#0e9347"/>
    <circle id="Ellipse_6287" data-name="Ellipse 6287" cx="1.5" cy="1.5" r="1.5" transform="translate(-0.452 7.059)" fill="#0e9347"/>
    <ellipse id="Ellipse_6288" data-name="Ellipse 6288" cx="1" cy="1.5" rx="1" ry="1.5" transform="translate(22.548 7.059)" fill="#0e9347"/>
  </g>
  <path id="Path_29599" data-name="Path 29599" d="M214.38,109.654h-1.97a.985.985,0,0,1,0-1.97h2.955a.985.985,0,0,0,0-1.97h-.985a.985.985,0,0,0-1.97,0,2.955,2.955,0,0,0,0,5.91h1.97a.985.985,0,0,1,0,1.97h-2.955a.985.985,0,0,0,0,1.97h.985a.985.985,0,1,0,1.97,0,2.955,2.955,0,0,0,0-5.91Z" transform="translate(-191.726 -97.834)" fill="#89c763"/>
  <ellipse id="Ellipse_6289" data-name="Ellipse 6289" cx="7.5" cy="6" rx="7.5" ry="6" transform="translate(17.557 19.732)" fill="#ffca5d"/>
  <ellipse id="Ellipse_6290" data-name="Ellipse 6290" cx="7.5" cy="6.5" rx="7.5" ry="6.5" transform="translate(26.558 18.732)" fill="#f6b545"/>
  <path id="Path_29600" data-name="Path 29600" d="M332.713,232.727a6.895,6.895,0,1,0,6.895,6.895A6.852,6.852,0,0,0,332.713,232.727Zm0,11.819a4.925,4.925,0,1,1,4.925-4.925A4.877,4.877,0,0,1,332.713,244.546Z" transform="translate(-298.24 -214.998)" fill="#ffcb5b"/>
  <path id="Path_29601" data-name="Path 29601" d="M407.273,320.978h0a6.77,6.77,0,0,0,6.895-6.8h-.1a1.047,1.047,0,0,0-.985.886,5.955,5.955,0,0,1-1.871,3.546,5.581,5.581,0,0,1-3.053,1.477A.883.883,0,0,0,407.273,320.978Z" transform="translate(-372.8 -289.559)" fill="#f6b545"/>
  <path id="Path_29602" data-name="Path 29602" d="M332.713,233.867h0a6.769,6.769,0,0,0-6.895,6.8h.1a1.047,1.047,0,0,0,.985-.886,5.955,5.955,0,0,1,1.871-3.546,5.582,5.582,0,0,1,3.053-1.477A.883.883,0,0,0,332.713,233.867Z" transform="translate(-298.24 -216.039)" fill="#ffe27a"/>
  <path id="Path_29603" data-name="Path 29603" d="M349.78,261.614a4.877,4.877,0,0,1,4.925-4.925,4.646,4.646,0,0,1,3.152,1.182,4.909,4.909,0,0,0-8.766,3.053,4.722,4.722,0,0,0,1.773,3.743A4.619,4.619,0,0,1,349.78,261.614Z" transform="translate(-319.543 -236.301)" fill="#f19920"/>
  <path id="Path_29604" data-name="Path 29604" d="M437.389,311.91a.361.361,0,0,1-.3-.1.476.476,0,0,1,0-.689,3.287,3.287,0,0,0,.886-2.265.492.492,0,1,1,.985,0,4.548,4.548,0,0,1-1.083,2.955A1.07,1.07,0,0,1,437.389,311.91Z" transform="translate(-399.961 -284.233)" fill="#ffcb5b"/>
  <g id="Group_26812" data-name="Group 26812" transform="translate(27.677 19.699)">
    <path id="Path_29605" data-name="Path 29605" d="M396.622,285.184a.931.931,0,0,1-.985-.985v-3.94a.985.985,0,1,1,1.97,0v3.94A.931.931,0,0,1,396.622,285.184Z" transform="translate(-389.826 -277.304)" fill="#f19920"/>
    <path id="Path_29606" data-name="Path 29606" d="M337.421,266.736a8,8,0,0,0-4.728-5.319A8.235,8.235,0,0,0,328.951,256a7.12,7.12,0,0,0-1.97,4.826,6.852,6.852,0,0,0,6.895,6.895A5.712,5.712,0,0,0,337.421,266.736Z" transform="translate(-326.981 -256)" fill="#f19920"/>
  </g>
  <g id="Group_26813" data-name="Group 26813" transform="translate(29.548 20.979)">
    <path id="Path_29607" data-name="Path 29607" d="M350.863,278.515a5.181,5.181,0,0,1-1.182-3.152,4.768,4.768,0,0,1,1.576-3.546,4.286,4.286,0,0,0-.591-.689,4.825,4.825,0,0,0-1.576,3.644A4.722,4.722,0,0,0,350.863,278.515Z" transform="translate(-349.09 -271.128)" fill="#e78825"/>
    <path id="Path_29608" data-name="Path 29608" d="M395.636,321.164v1.379a.985.985,0,0,0,1.97,0v-.2A8.044,8.044,0,0,0,395.636,321.164Z" transform="translate(-391.696 -316.929)" fill="#e78825"/>
  </g>
  <path id="Path_29609" data-name="Path 29609" d="M336.357,267.8a6.3,6.3,0,0,0-.788-1.871,4.766,4.766,0,0,1-2.856.985,4.877,4.877,0,0,1-4.925-4.925,4.825,4.825,0,0,1,1.576-3.644,6.008,6.008,0,0,0-1.576-1.182,7.12,7.12,0,0,0-1.97,4.826,6.852,6.852,0,0,0,6.895,6.895A6.6,6.6,0,0,0,336.357,267.8Z" transform="translate(-298.24 -237.365)" fill="#f6b545"/>
  <path id="Path_29610" data-name="Path 29610" d="M410.621,372.364a6.811,6.811,0,0,1-2.462.985,1.047,1.047,0,0,0-.886.985h0a6.6,6.6,0,0,0,3.644-1.084Z" transform="translate(-372.799 -342.816)" fill="#f19920"/>
  <path id="Path_29611" data-name="Path 29611" d="M327.788,257.164a7.12,7.12,0,0,0-1.97,4.826h.1a1.047,1.047,0,0,0,.985-.886,6.129,6.129,0,0,1,1.773-3.447A4,4,0,0,1,327.788,257.164Z" transform="translate(-298.24 -237.367)" fill="#ffcb5b"/>
  <ellipse id="Ellipse_6291" data-name="Ellipse 6291" cx="7.5" cy="6" rx="7.5" ry="6" transform="translate(17.557 19.732)" fill="#f6b545"/>
  <path id="Path_29612" data-name="Path 29612" d="M290.909,321.076a6.827,6.827,0,0,0,.3,1.97h.689a6.871,6.871,0,0,0,6.6-8.864H297.8A6.852,6.852,0,0,0,290.909,321.076Z" transform="translate(-266.286 -289.557)" fill="#f19920"/>
  <path id="Path_29613" data-name="Path 29613" d="M227.985,256a6.895,6.895,0,1,0,6.895,6.895A6.852,6.852,0,0,0,227.985,256Zm0,11.819a4.925,4.925,0,1,1,4.925-4.925A4.877,4.877,0,0,1,227.985,267.819Z" transform="translate(-202.376 -236.301)" fill="#ffcb5b"/>
  <path id="Path_29614" data-name="Path 29614" d="M302.545,344.251h0a6.769,6.769,0,0,0,6.895-6.8h-.1a1.047,1.047,0,0,0-.985.886,5.954,5.954,0,0,1-1.871,3.546,5.581,5.581,0,0,1-3.053,1.478A.883.883,0,0,0,302.545,344.251Z" transform="translate(-276.937 -310.862)" fill="#f6b545"/>
  <path id="Path_29615" data-name="Path 29615" d="M227.985,257.14h0a6.77,6.77,0,0,0-6.895,6.8h.1a1.047,1.047,0,0,0,.985-.886,5.955,5.955,0,0,1,1.871-3.546,5.581,5.581,0,0,1,3.053-1.477A.883.883,0,0,0,227.985,257.14Z" transform="translate(-202.376 -237.342)" fill="#ffe27a"/>
  <path id="Path_29616" data-name="Path 29616" d="M245.053,284.887a4.877,4.877,0,0,1,4.925-4.925,4.645,4.645,0,0,1,3.152,1.182,4.909,4.909,0,0,0-8.766,3.053,4.722,4.722,0,0,0,1.773,3.743A4.62,4.62,0,0,1,245.053,284.887Z" transform="translate(-223.679 -257.604)" fill="#f19920"/>
  <path id="Path_29617" data-name="Path 29617" d="M332.662,335.182a.362.362,0,0,1-.3-.1.476.476,0,0,1,0-.689,3.287,3.287,0,0,0,.886-2.265.492.492,0,0,1,.985,0,4.548,4.548,0,0,1-1.083,2.955A1.07,1.07,0,0,1,332.662,335.182Z" transform="translate(-304.099 -305.535)" fill="#ffcb5b"/>
  <path id="Path_29618" data-name="Path 29618" d="M291.894,308.457a.931.931,0,0,1-.985-.985v-3.94a.985.985,0,1,1,1.97,0v3.94A.93.93,0,0,1,291.894,308.457Z" transform="translate(-266.286 -278.908)" fill="#f19920"/>
  <g id="Group_26814" data-name="Group 26814" transform="translate(22.782 24.623)">
    <path id="Path_29619" data-name="Path 29619" d="M296.426,314.28a5.761,5.761,0,0,1,.394,1.871,4.877,4.877,0,0,1-4.925,4.925,3.352,3.352,0,0,1-.985-.1v.1a6.826,6.826,0,0,0,.3,1.97h.689a6.871,6.871,0,0,0,6.6-8.865H297.8A6.509,6.509,0,0,0,296.426,314.28Z" transform="translate(-289.068 -314.181)" fill="#f6b545"/>
    <ellipse id="Ellipse_6292" data-name="Ellipse 6292" cx="7" cy="7.5" rx="7" ry="7.5" transform="translate(-0.225 0.109)" fill="#f6b545"/>
  </g>
  <path id="Path_29620" data-name="Path 29620" d="M286.167,325.818a6.895,6.895,0,1,0,6.895,6.895A6.852,6.852,0,0,0,286.167,325.818Zm0,11.819a4.925,4.925,0,1,1,4.925-4.925A4.877,4.877,0,0,1,286.167,337.637Z" transform="translate(-255.634 -300.21)" fill="#ffcb5b"/>
  <path id="Path_29621" data-name="Path 29621" d="M360.727,414.069h0a6.769,6.769,0,0,0,6.895-6.8h-.1a1.047,1.047,0,0,0-.985.887,5.954,5.954,0,0,1-1.871,3.546,5.58,5.58,0,0,1-3.053,1.477A.883.883,0,0,0,360.727,414.069Z" transform="translate(-330.194 -374.77)" fill="#f6b545"/>
  <path id="Path_29622" data-name="Path 29622" d="M286.167,326.958h0a6.769,6.769,0,0,0-6.895,6.8h.1a1.047,1.047,0,0,0,.985-.886,5.955,5.955,0,0,1,1.871-3.546,5.581,5.581,0,0,1,3.053-1.477A.883.883,0,0,0,286.167,326.958Z" transform="translate(-255.634 -301.251)" fill="#ffe27a"/>
  <path id="Path_29623" data-name="Path 29623" d="M303.235,354.705a4.877,4.877,0,0,1,4.925-4.925,4.646,4.646,0,0,1,3.152,1.182,4.909,4.909,0,0,0-8.766,3.053,4.722,4.722,0,0,0,1.773,3.743A4.619,4.619,0,0,1,303.235,354.705Z" transform="translate(-276.937 -321.513)" fill="#f19920"/>
  <path id="Path_29624" data-name="Path 29624" d="M390.843,405a.362.362,0,0,1-.3-.1.476.476,0,0,1,0-.689,3.287,3.287,0,0,0,.886-2.265.492.492,0,0,1,.985,0,4.548,4.548,0,0,1-1.084,2.955A1.07,1.07,0,0,1,390.843,405Z" transform="translate(-357.355 -369.444)" fill="#ffcb5b"/>
  <path id="Path_29625" data-name="Path 29625" d="M350.076,378.274a.93.93,0,0,1-.985-.985v-3.94a.985.985,0,1,1,1.97,0v3.94A.93.93,0,0,1,350.076,378.274Z" transform="translate(-319.543 -342.816)" fill="#f19920"/>
</svg>
