<svg xmlns="http://www.w3.org/2000/svg" width="19.269" height="19.269" viewBox="0 0 19.269 19.269">
  <g id="phone-red" transform="translate(0 2.374) rotate(-8)">
    <g id="call-calling">
      <g id="call-calling-2" data-name="call-calling" transform="translate(1.422 1.422)">
        <path id="Vector" d="M0,11.608a1.809,1.809,0,0,0,.178.775,2.933,2.933,0,0,0,.483.725,3.2,3.2,0,0,0,1.166.839,3.57,3.57,0,0,0,1.386.27A5.924,5.924,0,0,0,5.53,13.7a12.486,12.486,0,0,0,2.445-1.407,20.437,20.437,0,0,0,2.332-1.99,20.2,20.2,0,0,0,1.983-2.324,12.673,12.673,0,0,0,1.393-2.424A5.987,5.987,0,0,0,14.2,3.227a3.677,3.677,0,0,0-.256-1.372A3.272,3.272,0,0,0,13.122.668,2.083,2.083,0,0,0,11.644,0a1.336,1.336,0,0,0-.576.128,1.159,1.159,0,0,0-.476.4L8.943,2.851a2.433,2.433,0,0,0-.284.5,1.124,1.124,0,0,0-.1.434.965.965,0,0,0,.149.5,2.418,2.418,0,0,0,.4.5l.54.562a.38.38,0,0,1,.114.284.645.645,0,0,1-.021.163c-.021.057-.043.1-.057.142a5.9,5.9,0,0,1-.661.91c-.32.37-.661.746-1.031,1.123S7.237,8.7,6.86,9.021a5.456,5.456,0,0,1-.917.654c-.036.014-.078.036-.128.057a.491.491,0,0,1-.178.028.391.391,0,0,1-.291-.121l-.54-.533a2.181,2.181,0,0,0-.512-.4.947.947,0,0,0-.5-.149,1.134,1.134,0,0,0-.434.092,2.749,2.749,0,0,0-.5.277L.5,10.6a1.078,1.078,0,0,0-.391.455A1.458,1.458,0,0,0,0,11.608Z" transform="translate(0.021)" fill="none" stroke="#3c3c3b" stroke-width="1.5"/>
        <path id="Vector-2" data-name="Vector" d="M0,2.488A2.819,2.819,0,0,1,.832.874,2.428,2.428,0,0,1,2.488,0" transform="translate(2.488 2.488)" fill="none" stroke="#ff4747" stroke-linecap="round" stroke-linejoin="round" stroke-width="1.5"/>
        <path id="Vector-3" data-name="Vector" d="M0,4.976A4.972,4.972,0,0,1,4.976,0" fill="none" stroke="#ff4747" stroke-linecap="round" stroke-linejoin="round" stroke-width="1.5"/>
      </g>
      <path id="Vector-4" data-name="Vector" d="M17.061,0H0V17.061H17.061Z" fill="none" opacity="0"/>
    </g>
  </g>
</svg>
