<svg xmlns="http://www.w3.org/2000/svg" width="24.255" height="22.762" viewBox="0 0 24.255 22.762">
  <g id="return" transform="translate(-21.294 -20.625)">
    <path id="Path_4432" data-name="Path 4432" d="M21.294,32.006a11.575,11.575,0,0,1,22.422-3.841l1.181.011c.608,0,.83.414.5.914L43.5,32.93a.674.674,0,0,1-1.21-.007l-2.537-3.87c-.331-.5-.1-.912.506-.909l1.215.007a9.441,9.441,0,1,0-8.629,13.193,9.542,9.542,0,0,0,7.123-3.18,1.045,1.045,0,0,1,1.462-.094,1.012,1.012,0,0,1,.1,1.443,11.629,11.629,0,0,1-8.684,3.875A11.479,11.479,0,0,1,21.294,32.006" transform="translate(0)" fill="#121212"/>
  </g>
</svg>
