<svg id="saudi-arabia_1_" data-name="saudi-arabia (1)" xmlns="http://www.w3.org/2000/svg" width="25.394" height="16.638" viewBox="0 0 25.394 16.638">
  <path id="Path_12312" data-name="Path 12312" d="M23.492,104.914H1.9a1.9,1.9,0,0,1-1.9-1.9V90.178a1.9,1.9,0,0,1,1.9-1.9H23.492a1.9,1.9,0,0,1,1.9,1.9v12.834A1.9,1.9,0,0,1,23.492,104.914Z" transform="translate(0 -88.276)" fill="#73af00"/>
  <g id="Group_12503" data-name="Group 12503" transform="translate(5.021 3.503)">
    <path id="Path_12313" data-name="Path 12313" d="M102.384,167.865c.043.277.21.363.356.352a.357.357,0,0,0,.322-.336v-.949a.086.086,0,0,1,.173,0v.953a.345.345,0,0,0,.473.32l.086-.034c.008.8-.041,1.5-.041,1.51a.173.173,0,0,0,.16.184h.013a.173.173,0,0,0,.172-.16c0-.056.057-.823.041-1.672l.052-.021a.173.173,0,0,1,.141.006.493.493,0,0,0,.569-.092l.031-.031a.515.515,0,0,0,.125-.53l-.147-.441a.173.173,0,0,0,.128-.319l-.345-.173a.173.173,0,0,0-.241.209l.278.833a.172.172,0,0,1-.042.177l-.031.031a.148.148,0,0,1-.171.028.516.516,0,0,0-.359-.036,5.953,5.953,0,0,0-.211-1.487.173.173,0,0,0-.327.109,5.934,5.934,0,0,1,.2,1.506l-.207.083v-.953a.432.432,0,1,0-.863,0v.835l-.176-.87a.173.173,0,1,0-.338.068Z" transform="translate(-102.15 -165.713)" fill="#f5f5f5"/>
    <path id="Path_12314" data-name="Path 12314" d="M109.333,163.112a.173.173,0,0,0,.173-.173v-.173a.173.173,0,1,0-.345,0v.173A.173.173,0,0,0,109.333,163.112Z" transform="translate(-108.766 -162.411)" fill="#f5f5f5"/>
    <path id="Path_12315" data-name="Path 12315" d="M144.13,162.939h.173a.173.173,0,1,0,0-.345h-.173a.173.173,0,1,0,0,.345Z" transform="translate(-141.838 -162.411)" fill="#f5f5f5"/>
    <path id="Path_12316" data-name="Path 12316" d="M106.626,214.814l-.863.518a.173.173,0,1,0,.178.3l.863-.518a.173.173,0,1,0-.178-.3Z" transform="translate(-105.458 -212.017)" fill="#f5f5f5"/>
    <path id="Path_12317" data-name="Path 12317" d="M118.8,168.818l0,0a.394.394,0,0,0,.08.162.339.339,0,0,0,.294.114.476.476,0,0,0,.359-.189.312.312,0,0,0,.036.022.327.327,0,0,0,.3-.01.655.655,0,0,0,.309-.608.177.177,0,0,0-.18-.163.173.173,0,0,0-.165.179s0,.207-.121.283a.421.421,0,0,1-.054-.146.173.173,0,0,0-.343.029c0,.025-.006.247-.177.265a.422.422,0,0,1,0-.226.173.173,0,0,0-.265-.183l-.1.066c-.046-1-.151-2.167-.152-2.182a.173.173,0,1,0-.344.031c0,.016.123,1.365.161,2.4l-.027.026a.445.445,0,0,0-.378-.3.63.63,0,0,0-.608.385.408.408,0,0,0,.132.515.575.575,0,0,0,.515.024,1.443,1.443,0,0,1-.281.532.724.724,0,0,1-.551.281.454.454,0,0,1-.335-.143.986.986,0,0,1-.182-.618.173.173,0,0,0-.163-.181.169.169,0,0,0-.182.163,1.324,1.324,0,0,0,.271.868.791.791,0,0,0,.578.256h.035a1.052,1.052,0,0,0,.792-.4,1.786,1.786,0,0,0,.4-.885,1.956,1.956,0,0,1-.828,1.55.862.862,0,0,1-.864.063.74.74,0,0,1-.38-.73.173.173,0,1,0-.342-.043,1.084,1.084,0,0,0,.57,1.082,1.173,1.173,0,0,0,.522.125,1.277,1.277,0,0,0,.677-.2,2.3,2.3,0,0,0,.991-1.844C118.806,169.068,118.8,168.946,118.8,168.818ZM117.76,169c-.031-.02-.007-.086,0-.1a.293.293,0,0,1,.241-.17h.014c.022,0,.081.008.106.138,0,.014,0,.028.007.042C117.933,169.022,117.8,169.025,117.76,169Z" transform="translate(-115.306 -165.716)" fill="#f5f5f5"/>
    <path id="Path_12318" data-name="Path 12318" d="M101.878,243.347a.173.173,0,0,0-.236.061.351.351,0,0,1-.029.041l-.006-.014a1.161,1.161,0,0,1,.005-.586.173.173,0,0,0-.333-.089,1.486,1.486,0,0,0,.005.8c.079.211.2.264.289.271h.023a.453.453,0,0,0,.344-.247A.172.172,0,0,0,101.878,243.347Z" transform="translate(-101.225 -238.48)" fill="#f5f5f5"/>
    <path id="Path_12319" data-name="Path 12319" d="M175.3,164.147a.171.171,0,0,0,.106-.037l.87-.683a.167.167,0,0,0,.028-.033.432.432,0,1,0-.5-.038l-.616.483a.173.173,0,0,0,.107.308Zm.784-1.208a.086.086,0,1,1-.086.086A.086.086,0,0,1,176.085,162.939Z" transform="translate(-171.463 -162.411)" fill="#f5f5f5"/>
    <path id="Path_12320" data-name="Path 12320" d="M185.4,190.44a.172.172,0,0,0-.218.109.527.527,0,0,0,.067.509.348.348,0,0,0,.258.1.758.758,0,0,0,.238-.044.173.173,0,1,0-.109-.327.6.6,0,0,1-.141.03.331.331,0,0,1,.014-.158A.172.172,0,0,0,185.4,190.44Z" transform="translate(-180.986 -188.867)" fill="#f5f5f5"/>
    <path id="Path_12321" data-name="Path 12321" d="M227.74,163.131a.173.173,0,0,0,.214-.117l.1-.345a.173.173,0,1,0-.331-.1l-.1.345A.173.173,0,0,0,227.74,163.131Z" transform="translate(-221.347 -162.271)" fill="#f5f5f5"/>
    <path id="Path_12322" data-name="Path 12322" d="M205.99,159.737a.173.173,0,1,0,.174-.3c-.035-.02-.03-.077-.029-.089a.135.135,0,0,1,.079-.115.173.173,0,0,0-.1-.33.474.474,0,0,0-.32.406A.426.426,0,0,0,205.99,159.737Z" transform="translate(-200.603 -158.897)" fill="#f5f5f5"/>
    <path id="Path_12323" data-name="Path 12323" d="M178.927,232.189a.173.173,0,0,0-.032.342.325.325,0,0,1,.032.176.173.173,0,0,0,.345,0C179.272,232.195,178.941,232.189,178.927,232.189Z" transform="translate(-174.909 -228.554)" fill="#f5f5f5"/>
    <path id="Path_12324" data-name="Path 12324" d="M234.77,208.323a.4.4,0,0,0,.065.005.59.59,0,0,0,.408-.2.173.173,0,1,0-.244-.244c-.1.1-.159.105-.173.1-.033,0-.063-.048-.069-.059a.173.173,0,0,0-.308.156A.467.467,0,0,0,234.77,208.323Z" transform="translate(-227.824 -205.403)" fill="#f5f5f5"/>
    <path id="Path_12325" data-name="Path 12325" d="M293.924,190.939l0-.008a.173.173,0,0,0-.327.11.386.386,0,0,0,.281.269l.038,0a.422.422,0,0,0,.334-.23.173.173,0,1,0-.287-.191A.532.532,0,0,1,293.924,190.939Z" transform="translate(-284.045 -189.231)" fill="#f5f5f5"/>
    <path id="Path_12326" data-name="Path 12326" d="M204.29,170.553c0-.736-.032-1.426-.077-2.031a8.735,8.735,0,0,1,.606,1.229.173.173,0,0,0,.162.112.175.175,0,0,0,.061-.011.173.173,0,0,0,.1-.222,11.43,11.43,0,0,0-1-1.892c-.094-.93-.2-1.52-.2-1.53a.173.173,0,0,0-.34.062c0,.007.056.311.121.823-.133-.2-.256-.374-.359-.52l.008,0a.173.173,0,1,0,.109-.327l-.518-.173a.171.171,0,0,0-.22.116.377.377,0,0,0-.36-.086.294.294,0,0,0-.165.307,1.56,1.56,0,0,0,.119.489c.1.288.165.5.058.6a.189.189,0,0,1-.177.062c-.106-.027-.212-.169-.282-.379a.163.163,0,0,0-.014-.024,2.936,2.936,0,0,0-.053-.955.173.173,0,0,0-.339.068,1.643,1.643,0,0,1-.09,1.23.31.31,0,0,1-.258.117.1.1,0,0,1-.083-.038,1.663,1.663,0,0,1-.092-.973.173.173,0,0,0-.171-.2c-.3,0-.41.338-.509.636-.044.131-.125.375-.181.4-.1,0-.172-.307-.173-.518a.173.173,0,0,0-.173-.172h0a.172.172,0,0,0-.172.172c0,.4.136.863.518.863.285,0,.4-.31.5-.6a1.082,1.082,0,0,0,.2.613.443.443,0,0,0,.343.158.657.657,0,0,0,.525-.243.8.8,0,0,0,.064-.1.644.644,0,0,0,.362.271.5.5,0,0,0,.122.015.548.548,0,0,0,.376-.161.508.508,0,0,0,.058-.07.466.466,0,0,0,.128.019.7.7,0,0,0,.358-.11.173.173,0,0,0-.185-.291.366.366,0,0,1-.2.051,1.78,1.78,0,0,0-.131-.567,2.4,2.4,0,0,1-.089-.289l.041.037a.172.172,0,0,0,.244,0,.166.166,0,0,0,.025-.038c.179.246.547.764.925,1.361.072.734.136,1.67.136,2.7a.173.173,0,0,0,.345,0Z" transform="translate(-194.749 -165.71)" fill="#f5f5f5"/>
    <path id="Path_12327" data-name="Path 12327" d="M293.759,166.765a.173.173,0,1,0,.345,0,1.76,1.76,0,0,0-.191-.595.173.173,0,0,0-.309.154A1.533,1.533,0,0,1,293.759,166.765Z" transform="translate(-284.045 -165.719)" fill="#f5f5f5"/>
    <path id="Path_12328" data-name="Path 12328" d="M263.21,249.953a.172.172,0,0,0-.232.076.494.494,0,0,1-.072.1.964.964,0,0,1,.045-.319.173.173,0,0,0-.287-.173l-.345.345a.173.173,0,1,0,.244.244l.009-.009a.356.356,0,0,0,.092.181.315.315,0,0,0,.224.1.3.3,0,0,0,.047,0,.562.562,0,0,0,.35-.313A.172.172,0,0,0,263.21,249.953Z" transform="translate(-254.282 -245.091)" fill="#f5f5f5"/>
    <path id="Path_12329" data-name="Path 12329" d="M170.538,205.568h-1.216q.016-.064.033-.123c.485-.1.773-.257.858-.466a.386.386,0,0,0-.065-.387.428.428,0,0,0-.436-.186c-.245.05-.464.314-.621.737a1.983,1.983,0,0,0-1,.431,2.674,2.674,0,0,0-.358-1.147.173.173,0,0,0-.287.191,2.492,2.492,0,0,1,.316,1.285,1.366,1.366,0,0,1-1.036,1.381c-.194,0-.279-.23-.316-.425a1.982,1.982,0,0,0,.829-.914,1.373,1.373,0,0,0-.115-.936l-.013-.03.011.01a.173.173,0,0,0,.244-.244c-.1-.1-.3-.26-.475-.185a.294.294,0,0,0-.165.307.734.734,0,0,0,.08.277,1.043,1.043,0,0,1,.1.716,1.46,1.46,0,0,1-.565.623.17.17,0,0,0-.131-.063h0a.172.172,0,0,0-.172.172c0,.031,0,.064,0,.1a9.072,9.072,0,0,1-1.11.608.173.173,0,0,0,.072.33.17.17,0,0,0,.071-.015,9.948,9.948,0,0,0,1.031-.552.671.671,0,0,0,.624.567,1.466,1.466,0,0,0,1.155-.844,1,1,0,0,0,.115.165,1.945,1.945,0,0,0,1.319.507.173.173,0,0,0,.012-.345.369.369,0,0,1-.215-.1.3.3,0,0,1-.057-.227c.018-.213.7-.372,1.308-.381a.173.173,0,0,0,.16-.115l.173-.485a.173.173,0,0,0-.162-.23Zm-.758-.824.013,0c.017,0,.043.008.077.055.007.009.028.039.022.052-.02.049-.139.13-.387.2C169.615,204.839,169.721,204.756,169.78,204.744Zm-1.042,2.269a1.057,1.057,0,0,1-.478-.29.734.734,0,0,1-.153-.608.508.508,0,0,1,.036-.073c.243-.022.892.074.937.259a.58.58,0,0,0-.365.45A.727.727,0,0,0,168.738,207.013Z" transform="translate(-161.676 -202.095)" fill="#f5f5f5"/>
    <path id="Path_12330" data-name="Path 12330" d="M291.479,166.706l-.173-.518a.173.173,0,0,0-.335.072c.119,1.191.344,3.513.344,3.78,0,.239-.425.71-1.113,1.054a.173.173,0,0,0,.154.309c.628-.314,1.3-.874,1.3-1.363,0-.255-.176-2.09-.277-3.12A.173.173,0,0,0,291.479,166.706Z" transform="translate(-280.739 -165.714)" fill="#f5f5f5"/>
    <path id="Path_12331" data-name="Path 12331" d="M335.914,194.066a.173.173,0,0,0,.289-.165.87.87,0,0,1-.025-.335.175.175,0,0,0,.179-.148.173.173,0,0,0-.146-.2.311.311,0,0,0-.284.1.4.4,0,0,0-.087.185l-.2-.2a.173.173,0,1,0-.244.244Z" transform="translate(-323.734 -191.517)" fill="#f5f5f5"/>
    <path id="Path_12332" data-name="Path 12332" d="M340.848,213.3l-.647.464a.173.173,0,1,0,.2.28l.647-.464a.173.173,0,1,0-.2-.281Z" transform="translate(-328.279 -210.566)" fill="#f5f5f5"/>
    <path id="Path_12333" data-name="Path 12333" d="M352.778,225.728a.173.173,0,0,0,.015.229.478.478,0,0,1,.035.248.173.173,0,0,0,.166.179H353a.173.173,0,0,0,.172-.166c.013-.352-.1-.481-.153-.52A.173.173,0,0,0,352.778,225.728Z" transform="translate(-340.267 -222.35)" fill="#f5f5f5"/>
    <path id="Path_12334" data-name="Path 12334" d="M324.519,170.37a.173.173,0,0,0,.173-.173c0-.255-.013-.539-.034-.835a6.294,6.294,0,0,1,.4.752.172.172,0,0,0,.159.1.17.17,0,0,0,.068-.014.173.173,0,0,0,.091-.227,9.5,9.5,0,0,0-.79-1.361c-.068-.633-.156-1.254-.225-1.7a.167.167,0,0,0,.108-.027.17.17,0,0,0,.076-.156.168.168,0,0,0,.019.05.628.628,0,0,1,.063.423.173.173,0,0,0,.134.2.183.183,0,0,0,.035,0,.173.173,0,0,0,.169-.138.978.978,0,0,0-.11-.678.173.173,0,0,0-.238-.053.1.1,0,1,1-.1.106l-.291-.453a.173.173,0,0,0-.315.123c0,.014.134.771.251,1.684-.132-.187-.265-.37-.393-.544-.021-.261-.042-.5-.06-.7l.028-.011a.173.173,0,0,0,.077-.232l-.173-.345a.173.173,0,0,0-.326.094c.021.206.042.434.063.673-.109-.144-.21-.276-.3-.387a.173.173,0,0,0-.035-.285l-.345-.173a.173.173,0,0,0-.212.262c.009.012.434.544.943,1.232a13.867,13.867,0,0,1,.064,2.575c-.015.046-.042.1-.066.1-.1.014-.353-.219-.478-.469a.24.24,0,0,0-.231-.156c-.185.011-.258.216-.389.586a2.429,2.429,0,0,1-.343.731,1.962,1.962,0,0,1-.215-.679.172.172,0,0,0,.333-.058c0-.257-.18-2.218-.281-3.292a.173.173,0,0,0,.1-.215l-.173-.518a.173.173,0,0,0-.336.071c.117,1.231.337,3.609.344,3.938v-.009a.173.173,0,1,0-.342.049c.05.353.179.959.476,1.058a.287.287,0,0,0,.092.015.339.339,0,0,0,.243-.113,2.49,2.49,0,0,0,.427-.862c.025-.072.055-.156.084-.229.158.231.435.519.714.5a.423.423,0,0,0,.369-.336,9.718,9.718,0,0,0-.006-2.155c.145.2.291.413.43.619.054.517.092,1.035.092,1.46A.173.173,0,0,0,324.519,170.37Z" transform="translate(-310.501 -165.721)" fill="#f5f5f5"/>
    <path id="Path_12335" data-name="Path 12335" d="M382.6,169.872c-.122-.911-.293-1.966-.4-2.613a.17.17,0,0,0,.145-.031.172.172,0,0,0,.033-.242l-.313-.41a.173.173,0,0,0-.307.134c0,.018.311,1.789.5,3.207a1.618,1.618,0,0,1-.284,1.3.764.764,0,0,1-.633.236.173.173,0,1,0-.022.344l.086,0a1.089,1.089,0,0,0,.821-.348A1.927,1.927,0,0,0,382.6,169.872Z" transform="translate(-367.275 -166.131)" fill="#f5f5f5"/>
    <path id="Path_12336" data-name="Path 12336" d="M371.06,256.186a.175.175,0,0,0,.009.242.073.073,0,0,1,.021.036.081.081,0,0,1-.026.039.173.173,0,1,0,.244.244.392.392,0,0,0,.127-.295.411.411,0,0,0-.135-.281A.171.171,0,0,0,371.06,256.186Z" transform="translate(-357.632 -251.307)" fill="#f5f5f5"/>
    <path id="Path_12337" data-name="Path 12337" d="M154.658,326.965H153.45v-.173a.173.173,0,0,0-.345,0v.173h-9.147a2.409,2.409,0,0,0,1.553.518H153.1v.345a.173.173,0,0,0,.173.173h1.381a.518.518,0,1,0,0-1.036Zm0,.69h-1.208v-.173h1.381l-.031-.093a.168.168,0,0,1,.031.093A.173.173,0,0,1,154.658,327.656Z" transform="translate(-141.838 -318.301)" fill="#f5f5f5"/>
  </g>
</svg>
