<svg xmlns="http://www.w3.org/2000/svg" width="14.238" height="14.236" viewBox="0 0 14.238 14.236">
  <g id="setting" transform="translate(-0.577 -0.577)">
    <rect id="Rectangle_18514" data-name="Rectangle 18514" width="14" height="14" transform="translate(0.816 0.814)" fill="#01939b" opacity="0"/>
    <g id="layer2" transform="translate(0.727 0.727)">
      <path id="ellipse2349" d="M5.722.156a.945.945,0,0,0-.454.506A1.161,1.161,0,0,1,5.09.994a1.456,1.456,0,0,1-.578.357,1.435,1.435,0,0,1-.661.143,1.226,1.226,0,0,1-.368-.119.943.943,0,0,0-.671-.043,2.1,2.1,0,0,0-.82.575,2.129,2.129,0,0,0-.592.815.938.938,0,0,0,.043.688,1.136,1.136,0,0,1,.1.361,1.447,1.447,0,0,1-.154.65,1.407,1.407,0,0,1-.361.563,1.032,1.032,0,0,1-.33.176.952.952,0,0,0-.525.452A2.107,2.107,0,0,0,0,6.6a2.2,2.2,0,0,0,.158,1,.939.939,0,0,0,.516.455,1.088,1.088,0,0,1,.321.177,1.456,1.456,0,0,1,.361.579,1.446,1.446,0,0,1,.141.667,1.049,1.049,0,0,1-.11.341.97.97,0,0,0-.05.693,2.118,2.118,0,0,0,.578.821,2.131,2.131,0,0,0,.817.592.946.946,0,0,0,.683-.045,1.139,1.139,0,0,1,.362-.1,1.459,1.459,0,0,1,.649.154,1.518,1.518,0,0,1,.568.366,1.1,1.1,0,0,1,.171.326.945.945,0,0,0,.451.525,2.174,2.174,0,0,0,1.043.171A2.174,2.174,0,0,0,7.7,13.143a.945.945,0,0,0,.451-.525,1.1,1.1,0,0,1,.171-.326,1.518,1.518,0,0,1,.568-.366,1.457,1.457,0,0,1,.649-.154,1.138,1.138,0,0,1,.362.1.946.946,0,0,0,.683.045,2.132,2.132,0,0,0,.817-.592,2.119,2.119,0,0,0,.578-.821.971.971,0,0,0-.05-.693,1.053,1.053,0,0,1-.11-.341,1.45,1.45,0,0,1,.141-.667,1.455,1.455,0,0,1,.361-.579,1.088,1.088,0,0,1,.321-.177.938.938,0,0,0,.516-.455,2.193,2.193,0,0,0,.158-1,2.1,2.1,0,0,0-.175-.988.953.953,0,0,0-.525-.452,1.033,1.033,0,0,1-.33-.176,1.408,1.408,0,0,1-.361-.563,1.44,1.44,0,0,1-.154-.65,1.152,1.152,0,0,1,.1-.361.938.938,0,0,0,.043-.688,2.129,2.129,0,0,0-.592-.815,2.1,2.1,0,0,0-.82-.575.943.943,0,0,0-.671.043,1.226,1.226,0,0,1-.368.119A1.434,1.434,0,0,1,8.8,1.35,1.456,1.456,0,0,1,8.224.994,1.159,1.159,0,0,1,8.046.662.945.945,0,0,0,7.592.156,2.043,2.043,0,0,0,6.657,0a2.043,2.043,0,0,0-.935.156ZM7.219.9c.025.014.027.006.074.113a1.769,1.769,0,0,0,.3.522,2.17,2.17,0,0,0,.892.585,2.238,2.238,0,0,0,1.045.2,1.863,1.863,0,0,0,.6-.17c.072-.029.091-.038.14-.023a1.644,1.644,0,0,1,.472.371,1.589,1.589,0,0,1,.377.463c.016.049.014.05-.02.149a1.85,1.85,0,0,0-.16.6,2.312,2.312,0,0,0,.219,1.034,2.263,2.263,0,0,0,.591.88,1.76,1.76,0,0,0,.536.3c.043.018.108.045.12.079a1.654,1.654,0,0,1,.08.61,1.584,1.584,0,0,1-.068.6c-.017.043-.076.061-.11.079a1.851,1.851,0,0,0-.536.309,2.28,2.28,0,0,0-.581.893,2.252,2.252,0,0,0-.2,1.04,1.753,1.753,0,0,0,.159.575c.04.1.049.116.039.148a1.669,1.669,0,0,1-.375.489,1.577,1.577,0,0,1-.462.373c-.049.016-.038.021-.157-.021a1.771,1.771,0,0,0-.586-.154,2.265,2.265,0,0,0-1.04.218,2.274,2.274,0,0,0-.881.6,1.871,1.871,0,0,0-.3.538c-.036.086-.044.1-.066.109a1.791,1.791,0,0,1-.661.076A1.791,1.791,0,0,1,6,12.4c-.022-.011-.03-.023-.066-.109a1.871,1.871,0,0,0-.3-.538,2.274,2.274,0,0,0-.881-.6,2.265,2.265,0,0,0-1.04-.218,1.771,1.771,0,0,0-.586.154c-.118.042-.108.037-.157.021a1.577,1.577,0,0,1-.462-.373,1.662,1.662,0,0,1-.375-.489c-.009-.032,0-.051.039-.148a1.756,1.756,0,0,0,.159-.575,2.252,2.252,0,0,0-.2-1.04A2.28,2.28,0,0,0,1.546,7.6,1.851,1.851,0,0,0,1.01,7.29C.976,7.273.916,7.254.9,7.211a1.581,1.581,0,0,1-.068-.6A1.653,1.653,0,0,1,.911,6c.013-.034.077-.061.12-.079a1.76,1.76,0,0,0,.536-.3,2.263,2.263,0,0,0,.591-.88A2.314,2.314,0,0,0,2.378,3.71a1.849,1.849,0,0,0-.16-.6c-.035-.1-.036-.1-.02-.149A1.587,1.587,0,0,1,2.574,2.5a1.644,1.644,0,0,1,.472-.371c.049-.015.068-.007.14.023a1.863,1.863,0,0,0,.6.17,2.238,2.238,0,0,0,1.045-.2,2.17,2.17,0,0,0,.892-.585,1.767,1.767,0,0,0,.3-.522c.047-.107.049-.1.074-.113A1.464,1.464,0,0,1,6.657.833,1.465,1.465,0,0,1,7.219.9ZM6.657,4.167a2.494,2.494,0,1,0,2.492,2.5A2.5,2.5,0,0,0,6.657,4.167Zm0,.833A1.661,1.661,0,1,1,4.994,6.662,1.658,1.658,0,0,1,6.657,5Z" transform="translate(0 0)" fill="#01939b" stroke="#949494" stroke-width="0.3"/>
    </g>
  </g>
</svg>
