<svg id="status" xmlns="http://www.w3.org/2000/svg" width="13.809" height="13.78" viewBox="0 0 13.809 13.78">
  <g id="Group_19205" data-name="Group 19205" transform="translate(0 0)">
    <g id="Group_19203" data-name="Group 19203">
      <path id="Path_22851" data-name="Path 22851" d="M13.694,14.28H1.086A.588.588,0,0,1,.5,13.694V1.086A.588.588,0,0,1,1.086.5H13.723a.588.588,0,0,1,.586.586V13.723A.632.632,0,0,1,13.694,14.28ZM1.643,13.137H13.137V1.643H1.643Z" transform="translate(-0.5 -0.5)" fill="#ffad1e"/>
    </g>
    <g id="Group_19204" data-name="Group 19204" transform="translate(4.163)">
      <path id="Path_22852" data-name="Path 22852" d="M15.257,5.631a.441.441,0,0,1-.323-.117.612.612,0,0,1-.235-.469V1.086A.588.588,0,0,1,15.286.5h4.193a.588.588,0,0,1,.586.586V5.044a.612.612,0,0,1-.235.469A.568.568,0,0,1,19.3,5.6L17.4,4.957,15.492,5.6C15.374,5.6,15.316,5.631,15.257,5.631Zm.586-3.987v2.58l1.349-.469a.837.837,0,0,1,.381,0l1.349.469V1.643Z" transform="translate(-14.7 -0.5)" fill="#ffad1e"/>
    </g>
  </g>
</svg>
