<svg xmlns="http://www.w3.org/2000/svg" width="432.675" height="463.669" viewBox="0 0 432.675 463.669">
  <g id="v-1" transform="translate(-1126.904 -260)">
    <path id="Path_36606" data-name="Path 36606" d="M1482.841,616.229c-60.4,50.242-149.791,64.8-224.751,35.162q-6.806-2.69-13.464-5.789-5.438-2.529-10.752-5.32a236.143,236.143,0,0,1-53.221-37.968q-4.936-4.709-9.516-9.7c-16.09-17.513-28.728-37.446-36.3-59.089q-1.2-3.416-2.223-6.888a137.59,137.59,0,0,1-5.691-41.357,246.579,246.579,0,0,1,2.486-32.391q.687-4.58,1.548-8.815c4.847-23.883,16.614-46.565,37.965-61.562,19.26-13.528,42.644-20.045,64.955-28.21,3.619-1.326,7.212-2.694,10.752-4.143q.523-.214,1.041-.43c39.941-16.573,64.994-58.271,108.265-67.724a123.058,123.058,0,0,1,22.2-2.716q2.782-.089,5.57-.064c.678,0,1.355.018,2.032.033q1.41.033,2.821.1,2.3.1,4.59.281,2.483.191,4.959.471c30.813,3.457,58.968,16.5,82.637,35.607q2.726,2.2,5.373,4.509a194.2,194.2,0,0,1,18.4,18.364.5.5,0,0,0,.046.053,206.089,206.089,0,0,1,26.42,38.13q1.207,2.239,2.354,4.507a198.842,198.842,0,0,1,17.8,51.21q.526,2.663.971,5.336.345,2.039.64,4.084.184,1.273.351,2.545.171,1.292.322,2.589C1558.712,509.177,1534.913,572.914,1482.841,616.229ZM1248.348,323.045q-1.815,1.115-3.72,2.087a75.916,75.916,0,0,1-24.3,7.252c-8.185,1.125-16.713,1.23-24.572-1.162s-14.99-7.565-17.993-14.659c-5.263-12.423,2.44-27.522,11.91-37.24,1.03-1.057,2.08-2.05,3.137-2.968a59.67,59.67,0,0,1,19.626-11.3c13.392-4.617,33.662-8.139,46.583-.962C1282.264,277.006,1265.181,312.711,1248.348,323.045Z" fill="#e1e7ff" opacity="0.16"/>
    <path id="Path_36607" data-name="Path 36607" d="M2710.358,547.554H2537.38V382.391q2.782-.089,5.57-.064c.677,0,1.355.018,2.032.033q1.411.033,2.821.1,2.3.1,4.59.281,2.483.191,4.959.471c30.813,3.457,58.969,16.5,82.637,35.607q2.726,2.2,5.373,4.509a194.1,194.1,0,0,1,16.09,15.775.429.429,0,0,0,.046.053,206.08,206.08,0,0,1,26.419,38.13q1.207,2.239,2.354,4.507a198.855,198.855,0,0,1,17.8,51.21q.526,2.663.971,5.336.345,2.039.64,4.084.184,1.273.351,2.545Q2710.207,546.257,2710.358,547.554Z" transform="translate(-1158.941 -100.508)" fill="#01939b"/>
    <path id="Path_36608" data-name="Path 36608" d="M2699.4,533.036H2524.43V367.874q2.782-.089,5.57-.064c.677,0,1.355.018,2.032.033q1.41.033,2.821.1,2.3.1,4.59.281,2.483.191,4.958.471c30.813,3.457,58.969,16.5,82.637,35.607q2.726,2.2,5.373,4.509a202.39,202.39,0,0,1,44.864,56.546q1.206,2.239,2.354,4.507a198.838,198.838,0,0,1,17.8,51.21q.526,2.663.971,5.336.346,2.039.64,4.084Q2699.229,531.763,2699.4,533.036Z" transform="translate(-1148.3 -88.58)" fill="#d1dbff" opacity="0.27"/>
    <path id="Path_36609" data-name="Path 36609" d="M2652.708,404.324H2555.67V367.836c.677,0,1.355.018,2.032.033q1.411.033,2.821.1,2.295.1,4.59.281,2.483.191,4.959.471C2600.885,372.174,2629.04,385.215,2652.708,404.324Zm50.237,61.055H2555.67V408.833h102.412A202.389,202.389,0,0,1,2702.945,465.379Zm21.129,61.053h-168.4V469.886H2705.3a198.827,198.827,0,0,1,17.8,51.21Q2723.628,523.759,2724.074,526.433Z" transform="translate(-1173.969 -88.605)" fill="#b6c7ff" opacity="0.25"/>
    <path id="Path_36610" data-name="Path 36610" d="M2675.066,404.921H2582.88V368.562q2.3.1,4.59.281,2.483.191,4.958.471C2623.242,372.771,2651.4,385.812,2675.066,404.921Zm50.237,61.055H2582.88V409.43h97.559A202.379,202.379,0,0,1,2725.3,465.976Zm21.129,61.053H2582.88V470.483h144.777a198.855,198.855,0,0,1,17.8,51.21Q2745.986,524.356,2746.432,527.029Z" transform="translate(-1196.326 -89.201)" fill="#fff" opacity="0.01"/>
    <path id="Path_36611" data-name="Path 36611" d="M2622.664,696.091l-1.188-1.071a1.674,1.674,0,0,1-.122-2.358L2649.09,661.9a1.674,1.674,0,0,1,2.358-.122l1.188,1.071a1.674,1.674,0,0,1,.122,2.358l-27.737,30.767a1.675,1.675,0,0,1-2.358.122Z" transform="translate(-1227.588 -329.772)" fill="#fff"/>
    <path id="Path_36612" data-name="Path 36612" d="M1.669,0h1.6A1.669,1.669,0,0,1,4.938,1.669V43.093a1.669,1.669,0,0,1-1.669,1.669h-1.6A1.669,1.669,0,0,1,0,43.093V1.669A1.669,1.669,0,0,1,1.669,0Z" transform="matrix(0.743, 0.67, -0.67, 0.743, 1439.743, 333.769)" fill="#fff"/>
    <path id="Path_36613" data-name="Path 36613" d="M2865.213,1014.3l-1.188-1.071a1.674,1.674,0,0,1-.122-2.358l27.737-30.767a1.675,1.675,0,0,1,2.358-.122l1.188,1.071a1.674,1.674,0,0,1,.122,2.358l-27.737,30.767A1.675,1.675,0,0,1,2865.213,1014.3Zm13.2,1.61-1.188-1.071a1.674,1.674,0,0,1-.122-2.358l27.736-30.767a1.675,1.675,0,0,1,2.358-.122l1.188,1.071a1.675,1.675,0,0,1,.122,2.358l-27.736,30.767A1.675,1.675,0,0,1,2878.412,1015.914Z" transform="translate(-1426.882 -591.237)" fill="#fff"/>
    <path id="Path_36614" data-name="Path 36614" d="M1.305,0H3.633A1.305,1.305,0,0,1,4.938,1.305V19.951a1.305,1.305,0,0,1-1.305,1.305H1.305A1.305,1.305,0,0,1,0,19.951V1.305A1.305,1.305,0,0,1,1.305,0Z" transform="matrix(0.743, 0.67, -0.67, 0.743, 1413.929, 290.611)" fill="#fff"/>
    <path id="Path_36615" data-name="Path 36615" d="M1233.877,769.732c3.619-1.326,7.212-2.694,10.753-4.143v295.437q-5.439-2.529-10.753-5.32a236.155,236.155,0,0,1-53.22-37.968q-4.936-4.709-9.516-9.7c-16.09-17.513-28.728-37.446-36.3-59.089q-1.2-3.416-2.223-6.888a137.586,137.586,0,0,1-5.691-41.357,246.539,246.539,0,0,1,2.486-32.391q.687-4.581,1.548-8.815c4.847-23.883,16.614-46.565,37.965-61.562C1188.182,784.415,1211.565,777.9,1233.877,769.732Z" transform="translate(-0.002 -415.425)" fill="#5cb0ca" opacity="0.3"/>
    <path id="Path_36616" data-name="Path 36616" d="M1233.877,788.821V961.155H1132.614a137.586,137.586,0,0,1-5.691-41.357,246.54,246.54,0,0,1,2.486-32.391q.687-4.58,1.548-8.814c4.847-23.883,16.614-46.565,37.966-61.562C1188.182,803.5,1211.566,796.987,1233.877,788.821Zm-62.736,179.222v59.089c-16.09-17.513-28.728-37.446-36.3-59.089Zm62.736,0V1074.8a236.153,236.153,0,0,1-53.22-37.968V968.043Z" transform="translate(-0.002 -434.514)" fill="#5cb0ca" opacity="0"/>
    <path id="Path_36617" data-name="Path 36617" d="M1670.031,1280.53h1.039a2.856,2.856,0,0,1,2.856,2.856v40.733a2.856,2.856,0,0,1-2.856,2.856h-1.039a2.856,2.856,0,0,1-2.856-2.856v-40.732A2.856,2.856,0,0,1,1670.031,1280.53Z" transform="translate(-443.923 -838.535)" fill="#abbbf4"/>
    <rect id="Rectangle_18588" data-name="Rectangle 18588" width="6.75" height="46.445" rx="3.375" transform="translate(1221.621 440.378)" fill="#ccd5ff"/>
    <path id="Path_36618" data-name="Path 36618" d="M1551.608,898.579h1.126a1.669,1.669,0,0,1,1.669,1.669V1035.57a1.669,1.669,0,0,1-1.669,1.67h-1.126a1.669,1.669,0,0,1-1.669-1.67V900.248A1.669,1.669,0,0,1,1551.608,898.579Z" transform="translate(-347.594 -524.698)" fill="#fff"/>
    <rect id="Rectangle_18589" data-name="Rectangle 18589" width="4.465" height="83.485" rx="2.232" transform="translate(1190.668 429.055)" fill="#fff"/>
    <path id="Path_36619" data-name="Path 36619" d="M1431.119,1865.221v-68.988h50.411V1793.8h-53.22v68.785Z" transform="translate(-247.655 -1260.271)" fill="#ffad1e"/>
    <path id="Path_36620" data-name="Path 36620" d="M1172.375,1796.555h35.308V1793.8h-36.3Z" transform="translate(-36.545 -1260.271)" fill="#ffad1e"/>
    <path id="Path_36621" data-name="Path 36621" d="M1788.929,761.179v296.926l-1.889-.7V761.965Z" transform="translate(-542.412 -411.802)" fill="#ffad1e"/>
    <path id="Path_36622" data-name="Path 36622" d="M1851.992,2694.33c-12.973.816-25.645,2.848-37.327,7.414-13.922,5.444,16.486,12.812,20.786,13.451,28.372,4.22,57.323,5.4,86.2,6.008q57.986,1.221,116.02-.593c24.638-.77,49.5-1.983,73.264-7.453,3.16-.728,6.467-1.617,8.629-3.629,4.511-4.2,1.4-11.243-4.4-14.153-11.595-5.825-32.143-3.07-45.112-2.912l-52.968.645-106.7,1.3C1891.818,2694.633,1871.563,2693.1,1851.992,2694.33Z" transform="translate(-562.135 -1998.025)" fill="#0e848a"/>
    <path id="Path_36623" data-name="Path 36623" d="M2047.246,1559.61s-9.312-.589-10.02,2.475-1.886,13.085,1.768,14.146,10.491.472,10.491-.707S2047.246,1559.61,2047.246,1559.61Z" transform="translate(-747.357 -1067.808)" fill="#01939b"/>
    <path id="Path_36624" data-name="Path 36624" d="M2036.9,1635.232s-13.829-1.089-14.879,4.576-2.8,24.188,2.626,26.149,15.579.872,15.579-1.307S2036.9,1635.232,2036.9,1635.232Z" transform="translate(-734.562 -1129.912)" fill="#26bbc3"/>
    <path id="Path_36625" data-name="Path 36625" d="M2084.537,913.831s3.036,5.768,13.326,2,19.121-9.18,19.833-11.545,1.066.936,2.834,2.35,16.975,7.9,23.341,12.5c1.855,1.34,3.916,2.338,5.786,3.659a46.39,46.39,0,0,1,5.456,4.518c4.621,4.462,7.795,9.861,11.082,15.313a56.585,56.585,0,0,1,3,5.431,6.019,6.019,0,0,1,.853,2.622c-.076.856-.554.937-1.3,1.109,0,0-13.556,36.779-17.564,37.958s-58.43-4.244-66.643-7.073-43.812-23.341-43.812-23.341,12.613-32.976,26.288-39.71S2083.319,911.01,2084.537,913.831Z" transform="translate(-750.856 -528.703)" fill="#febd57"/>
    <path id="Path_36626" data-name="Path 36626" d="M2176.675,971.437s-9.541,31.371-7.655,35.026,11.552,4.244,25.344,4.244,26.406-.472,28.292-5.776,6.822-30.336,9.953-31.318,12.79,1.374,12.8,1.376c-.75-.183-2.051,3.972-2.3,4.532-4.636,10.56-7.862,22.852-5.751,34.409a9.97,9.97,0,0,0,.773,2.619c.329.667,1.331,1.423,1.234,2.047-.132.854-1.645,2.23-2.237,2.868a9.74,9.74,0,0,1-3.983,2.8c-3.654,1.179-60.473-5.894-65.306-8.723s-4.126-16.739-1.415-24.048S2176.675,971.437,2176.675,971.437Z" transform="translate(-852.393 -584.563)" fill="#ff8c3e"/>
    <path id="Path_36627" data-name="Path 36627" d="M2205.244,1247.466c-1.648,2-21.218,3.773-21.218,3.773s-.715-2.374-1.876-6.267c-4.38-14.689-15.133-51-17.927-62.93-3.536-15.088-10.471-49.316-22.657-61.675-1.744-1.769-4.692,35.742-6.46,47.529s-2.238,37.133-1.649,51.986-5.423,32.064-5.423,32.064l-25.934,2.474s-.243-2.446-.649-6.546c-1.964-19.881-7.7-78.64-7.6-85.872.118-8.725-3.064-68.726-4.832-88.529a97.554,97.554,0,0,1-.035-14.345c.228-3.744.6-7.574,1.039-11.347,1.642-14.1,4.25-27.43,3.983-32.608-.436-8.435,12.458-47.543,12.458-47.543.434-1.331,9.786-6.853,8.126-4.038s-14.492,33.965-9.069,39.151,53.282,2.946,55.285,1.885,7.074-38.075,11.2-41.258,7.309-.471,10.02,1.061c2.609,1.473,1.4,2.622,1.3,2.707l-.007,0c-12.73,6.837-10.726,39.608-9.075,42.319s3.183.943,3.183.943l5.3,20.277,16.033,13.085s.724,6.055,1.71,14.093c.482,3.928,1.026,8.33,1.578,12.732,1.445,11.5-4.372,23.361-3.773,26.355,1.3,6.482,1.614,28.38,1.5,43.587s1.606,26.015,2.819,47.745C2203.694,1208.063,2206.894,1245.462,2205.244,1247.466Z" transform="translate(-790.303 -576.72)" fill="#01939b"/>
    <path id="Path_36628" data-name="Path 36628" d="M2209.023,1715.9c-.786-18.461-2.5-36.869-3.267-55.331-.736-17.749-.144-35.521-.242-53.279-.033-5.98,2.765-13.09,1.962-19.013-.755-5.564-1.305-11.234-2.008-16.829l-56.48,6.492c-.007.174.011.635.055,1.331l-56.148-.636.108,2.777s30.47,2.205,39.865,1.4,16.527,1.164,16.8,3.775h0c1.092,10.961,3.426,28.526,6.477,29.948,4.338,2.026,10.6-.144,17.627,1.6,16.208,4.016,13.27,25.421,20.715,66.655,6.98,38.655,5.994,53.633-8.917,61.04,1.162,3.893,1.876,6.267,1.876,6.267s19.569-1.769,21.217-3.773a5.1,5.1,0,0,0,.82-2.408C2211.287,1736.441,2209.443,1725.468,2209.023,1715.9Z" transform="translate(-793.722 -1077.57)" fill="#08676c"/>
    <path id="Path_36629" data-name="Path 36629" d="M2283.69,714.718c-2.076,4.382-.807,16.487-.807,16.487s-3,3.459-13.26,9.108-20.292,1.96-20.292,1.383.463-11.645.463-11.645c-6.342-2.306-8.534-15.564-8.308-19.716s.121-6.686.007-12.681a22.332,22.332,0,0,1,.285-4.158,11.211,11.211,0,0,1,1.559-4.49l29.648,1.578.675.035s15.564,10.261,15.91,16.143S2283.69,714.718,2283.69,714.718Z" transform="translate(-915.8 -352.5)" fill="#ffc890"/>
    <path id="Path_36630" data-name="Path 36630" d="M2278.506,708.805c-.993-2.5-1.4-5.2-2.188-7.771s-2.05-5.149-4.268-6.679a13.513,13.513,0,0,0-6.364-1.911c-7.484-.774-15.025.107-22.5,1.052a11.21,11.21,0,0,1,1.559-4.49l29.649,1.578c.017.024.033.051.05.075a10.675,10.675,0,0,1,1.653,3.387,24.055,24.055,0,0,1,.348,3.488C2276.8,701.35,2278.713,704.978,2278.506,708.805Z" transform="translate(-917.215 -352.499)" fill="#ff8c5a"/>
    <path id="Path_36631" data-name="Path 36631" d="M2424.927,718.547s-1.066.692-1.513,6.341-3.444-14.385-5.059-16.99,6,.964,6.572,4.077A21.954,21.954,0,0,1,2424.927,718.547Z" transform="translate(-1060.958 -367.282)" fill="#361029"/>
    <path id="Path_36632" data-name="Path 36632" d="M2320.391,621.494a64.216,64.216,0,0,1,8.878,10.649s6.687-6.226,9.8,3c0,0,2.537-7.725,1.153-12.106s-16.257-20.292-24.674-21.1a19.7,19.7,0,0,0-13.836,3.8S2316.7,619.953,2320.391,621.494Z" transform="translate(-965.301 -280.878)" fill="#01939b"/>
    <path id="Path_36633" data-name="Path 36633" d="M2288.14,868.254s3.8,1.384,12.452,0,13.029-5.88,14.643-9.685,2.191,1.038-.461,6-16.142,9.8-26.634,7.379Z" transform="translate(-954.149 -490.702)" fill="#ff8c5a"/>
    <path id="Path_36634" data-name="Path 36634" d="M2187.267,608.984s-17.3-15.869-10.73-20.135,16.026-2.191,23.175,4.266,16.6,15.869,16.6,15.869S2190.388,604.445,2187.267,608.984Z" transform="translate(-861.224 -268.368)" fill="#01939b"/>
    <path id="Path_36635" data-name="Path 36635" d="M2471.84,778.512a2.132,2.132,0,0,1,.455,1.076c.271,1.515-.151,3.985-1.661,4.782a2.045,2.045,0,0,1-2.79-1.039,4.664,4.664,0,0,1-.059-3.831C2468.4,778.1,2470.63,777.182,2471.84,778.512Z" transform="translate(-1101.443 -425.513)" fill="#ff8c5a"/>
    <ellipse id="Ellipse_6299" data-name="Ellipse 6299" cx="1.176" cy="2.063" rx="1.176" ry="2.063" transform="translate(1328.113 352.048)" fill="#361029"/>
    <ellipse id="Ellipse_6300" data-name="Ellipse 6300" cx="1.176" cy="2.063" rx="1.176" ry="2.063" transform="translate(1344.655 352.2)" fill="#361029"/>
    <path id="Path_36636" data-name="Path 36636" d="M2242.808,737.466a3.131,3.131,0,0,1,1.622.439,1.815,1.815,0,0,1,.7,1.885.408.408,0,0,1-.114.219.457.457,0,0,1-.223.08,21.912,21.912,0,0,1-7.136.42c-.667-.108-1.6-.439-1.5-1.3.07-.614.708-.72,1.2-.894A13.753,13.753,0,0,1,2242.808,737.466Zm12.323,0a3.131,3.131,0,0,0-1.622.439,1.814,1.814,0,0,0-.7,1.885.4.4,0,0,0,.114.219.457.457,0,0,0,.222.08,21.912,21.912,0,0,0,7.136.42c.667-.108,1.6-.439,1.5-1.3-.07-.614-.708-.72-1.2-.894A13.752,13.752,0,0,0,2255.131,737.466Z" transform="translate(-911.436 -392.3)" fill="#361029"/>
    <path id="Path_36637" data-name="Path 36637" d="M2281.456,794.291l-1.826,5.477,3.035.26Z" transform="translate(-947.156 -439.009)" fill="#ff6029"/>
    <circle id="Ellipse_6301" data-name="Ellipse 6301" cx="1.724" cy="1.724" r="1.724" transform="translate(1325.669 358.151)" fill="#ff8c5a" opacity="0.28"/>
    <circle id="Ellipse_6302" data-name="Ellipse 6302" cx="1.724" cy="1.724" r="1.724" transform="translate(1347.511 358.15) rotate(-45)" fill="#ff8c5a" opacity="0.28"/>
    <path id="Path_36638" data-name="Path 36638" d="M2183.68,601.146a6.313,6.313,0,0,1,1.588-2.026,7.222,7.222,0,0,1,1.053-.766c.183-.118.379-.214.57-.318s.393-.191.6-.267a9.718,9.718,0,0,1,2.536-.619,12.8,12.8,0,0,1,2.611,0c.435.034.864.108,1.294.172.426.087.854.164,1.274.279a25.47,25.47,0,0,1,2.487.766,31.064,31.064,0,0,1,4.685,2.241,46.092,46.092,0,0,1,8.228,6.267,56.874,56.874,0,0,1,6.86,7.707q-1.648-1.983-3.445-3.828t-3.7-3.572c-1.275-1.143-2.59-2.241-3.959-3.266-.682-.516-1.379-1.009-2.085-1.49s-1.432-.931-2.171-1.356a31.324,31.324,0,0,0-4.593-2.23,25.039,25.039,0,0,0-2.426-.786c-.409-.119-.826-.2-1.24-.292-.417-.072-.834-.155-1.256-.2a10.955,10.955,0,0,0-5.01.448A7.275,7.275,0,0,0,2183.68,601.146Z" transform="translate(-868.317 -276.969)" fill="#1a4ea2"/>
    <path id="Path_36639" data-name="Path 36639" d="M2201.606,1081.378c-19.249,3.03-53.637,5.112-68.667,5.71-14.709.585-33.268-2.563-42.825-4.443.228-3.744.6-7.574,1.039-11.346,0,0,38.211-24.747,41.749-22.625s35.52-.605,40.235-2.844,1.061-8.253-.59-14.03c-1.51-5.283-.9-11.453-.546-16.856a70.522,70.522,0,0,1,1.232-9.791c.628-3.017,1.42-6.525,3.188-9.068,1.538-2.211,4.656-6.335,7.947-5.453a.759.759,0,0,1,.084.027c-.527-.21-2.474,1.8-2.822,2.152a16.607,16.607,0,0,0-2.369,3.141,30.684,30.684,0,0,0-3.187,8.076,70.518,70.518,0,0,0-1.821,21.066c.12,2.238-.119,5.9,1.123,7.883,1.651,2.712,3.183.943,3.183.943l5.3,20.277,16.033,13.085S2200.618,1073.341,2201.606,1081.378Z" transform="translate(-791.437 -600.237)" fill="#08676c"/>
    <path id="Path_36640" data-name="Path 36640" d="M2085.073,1570.19a.838.838,0,0,1,.921-.912c5.088.531,28.966,2.591,64.372-1.158,40.08-4.244,50.17-4.368,50.17-4.368l2.438,1.731a4.556,4.556,0,0,1,1.624,5.323l-1.976,5.237s-28.443-2.383-48.954-1.44c-19,.873-61.312.05-67.447-.076a.837.837,0,0,1-.816-.761Z" transform="translate(-787.292 -1071.249)" fill="#d03e48"/>
    <path id="Path_36641" data-name="Path 36641" d="M2611.384,1491.934c-1.983,1.065-2.688,1.9-1.87,3.444l5.861,11.066c.267.505,1.308.263,1.552.723l.226.427a1,1,0,0,1-.088.814c.016-.01.031-.02.047-.028l4.643-2.495c.016-.009.033-.016.05-.024-.305-.069-.594-.141-.721-.38l-.226-.427c-.244-.46.535-1.2.268-1.7l-5.861-11.066C2614.446,1490.743,2613.367,1490.868,2611.384,1491.934Zm4.88,13.43-.04.021a.556.556,0,0,1-.759-.219l-5.545-10.469a.564.564,0,0,1,.243-.757l.039-.021a.556.556,0,0,1,.759.219l5.545,10.47a.565.565,0,0,1-.243.757Zm1.816-.976-.04.021a.556.556,0,0,1-.759-.219l-5.545-10.47a.565.565,0,0,1,.243-.757l.04-.021a.556.556,0,0,1,.759.219l5.545,10.47a.565.565,0,0,1-.244.757Zm1.943-1.671a.565.565,0,0,1-.243.757l-.039.021a.556.556,0,0,1-.759-.219l-5.545-10.47a.564.564,0,0,1,.243-.757l.039-.021a.557.557,0,0,1,.759.219Z" transform="translate(-1217.936 -1011.577)" fill="#febd57"/>
    <path id="Path_36642" data-name="Path 36642" d="M2616.844,1495.845l-.04.021a.564.564,0,0,0-.243.757l5.545,10.47a.556.556,0,0,0,.759.219l.04-.021a.564.564,0,0,0,.242-.757l-5.545-10.47a.556.556,0,0,0-.759-.219Zm-1.7.915-.039.021a.564.564,0,0,0-.243.757l5.545,10.47a.556.556,0,0,0,.759.219l.04-.021a.564.564,0,0,0,.242-.757l-5.545-10.47a.556.556,0,0,0-.759-.219Zm-1.815.975-.04.021a.565.565,0,0,0-.242.757l5.545,10.47a.556.556,0,0,0,.759.219l.04-.021a.565.565,0,0,0,.243-.757l-5.545-10.47a.556.556,0,0,0-.759-.219Z" transform="translate(-1221.061 -1015.394)" fill="#fff"/>
    <path id="Path_36643" data-name="Path 36643" d="M2679.965,1610.465l-.323,1.414,2.491,2.953.633-.341.635-.341-1.049-3.727-1.346-.519-11.215-21.175-1.042.558Z" transform="translate(-1266.883 -1091.772)" fill="#061859"/>
    <path id="Path_36644" data-name="Path 36644" d="M2651.559,1575.871c-.016.009-.032.019-.047.028a.844.844,0,0,0-.316,1.107l.116.219a.835.835,0,0,0,1.139.328l1.8-.968,1.041-.56,1.8-.967a.847.847,0,0,0,.364-1.135l-.116-.219a.832.832,0,0,0-1.089-.352l-.05.024Z" transform="translate(-1252.383 -1079.07)" fill="#febd57"/>
    <path id="Path_36645" data-name="Path 36645" d="M2200.156,1845.919c-.82,4.111-4.692,35.742-6.461,47.529s-2.238,37.132-1.648,51.986-5.424,32.064-5.424,32.064l-25.933,2.474s-.243-2.446-.649-6.546c15.542.585,23.793-37.61,22.638-59.882s5.206-45.7,8.966-59.3S2200.156,1845.919,2200.156,1845.919Z" transform="translate(-848.894 -1302.271)" fill="#08676c"/>
    <rect id="Rectangle_18590" data-name="Rectangle 18590" width="9.28" height="57.924" transform="matrix(0.817, -0.577, 0.577, 0.817, 1372.398, 482.398)" fill="#febd57"/>
    <rect id="Rectangle_18591" data-name="Rectangle 18591" width="4.715" height="57.924" transform="matrix(0.817, -0.577, 0.577, 0.817, 1376.127, 479.766)" fill="#ff8c3e"/>
    <rect id="Rectangle_18592" data-name="Rectangle 18592" width="4.715" height="0.897" transform="matrix(0.817, -0.577, 0.577, 0.817, 1378.875, 483.658)" fill="#313b47"/>
    <rect id="Rectangle_18593" data-name="Rectangle 18593" width="4.715" height="0.897" transform="matrix(0.817, -0.577, 0.577, 0.817, 1380.37, 485.775)" fill="#313b47"/>
    <rect id="Rectangle_18594" data-name="Rectangle 18594" width="4.715" height="0.897" transform="matrix(0.817, -0.577, 0.577, 0.817, 1381.865, 487.894)" fill="#313b47"/>
    <rect id="Rectangle_18595" data-name="Rectangle 18595" width="4.715" height="0.897" transform="matrix(0.817, -0.577, 0.577, 0.817, 1383.36, 490.01)" fill="#313b47"/>
    <rect id="Rectangle_18596" data-name="Rectangle 18596" width="4.715" height="0.897" transform="matrix(0.817, -0.577, 0.577, 0.817, 1384.854, 492.13)" fill="#313b47"/>
    <rect id="Rectangle_18597" data-name="Rectangle 18597" width="4.715" height="0.897" transform="matrix(0.817, -0.577, 0.577, 0.817, 1386.349, 494.249)" fill="#313b47"/>
    <rect id="Rectangle_18598" data-name="Rectangle 18598" width="4.715" height="0.897" transform="matrix(0.817, -0.577, 0.577, 0.817, 1387.845, 496.362)" fill="#313b47"/>
    <rect id="Rectangle_18599" data-name="Rectangle 18599" width="4.715" height="0.897" transform="matrix(0.817, -0.577, 0.577, 0.817, 1389.339, 498.48)" fill="#313b47"/>
    <rect id="Rectangle_18600" data-name="Rectangle 18600" width="4.715" height="0.897" transform="matrix(0.817, -0.577, 0.577, 0.817, 1390.836, 500.598)" fill="#313b47"/>
    <rect id="Rectangle_18601" data-name="Rectangle 18601" width="4.715" height="0.897" transform="matrix(0.817, -0.577, 0.577, 0.817, 1392.33, 502.715)" fill="#313b47"/>
    <rect id="Rectangle_18602" data-name="Rectangle 18602" width="4.715" height="0.897" transform="matrix(0.817, -0.577, 0.577, 0.817, 1393.825, 504.837)" fill="#313b47"/>
    <rect id="Rectangle_18603" data-name="Rectangle 18603" width="4.715" height="0.897" transform="matrix(0.817, -0.577, 0.577, 0.817, 1395.32, 506.951)" fill="#313b47"/>
    <rect id="Rectangle_18604" data-name="Rectangle 18604" width="4.715" height="0.897" transform="matrix(0.817, -0.577, 0.577, 0.817, 1396.815, 509.067)" fill="#313b47"/>
    <rect id="Rectangle_18605" data-name="Rectangle 18605" width="4.715" height="0.897" transform="matrix(0.817, -0.577, 0.577, 0.817, 1398.31, 511.186)" fill="#313b47"/>
    <rect id="Rectangle_18606" data-name="Rectangle 18606" width="4.715" height="0.897" transform="matrix(0.817, -0.577, 0.577, 0.817, 1399.806, 513.302)" fill="#313b47"/>
    <rect id="Rectangle_18607" data-name="Rectangle 18607" width="4.715" height="0.897" transform="matrix(0.817, -0.577, 0.577, 0.817, 1401.3, 515.419)" fill="#313b47"/>
    <rect id="Rectangle_18608" data-name="Rectangle 18608" width="4.715" height="0.897" transform="matrix(0.817, -0.577, 0.577, 0.817, 1402.795, 517.538)" fill="#313b47"/>
    <rect id="Rectangle_18609" data-name="Rectangle 18609" width="4.715" height="0.897" transform="matrix(0.817, -0.577, 0.577, 0.817, 1404.291, 519.654)" fill="#313b47"/>
    <rect id="Rectangle_18610" data-name="Rectangle 18610" width="4.715" height="0.897" transform="matrix(0.817, -0.577, 0.577, 0.817, 1405.786, 521.773)" fill="#313b47"/>
    <rect id="Rectangle_18611" data-name="Rectangle 18611" width="4.715" height="0.897" transform="matrix(0.817, -0.577, 0.577, 0.817, 1407.28, 523.89)" fill="#313b47"/>
    <path id="Path_36646" data-name="Path 36646" d="M2465.356,1569.865a5.312,5.312,0,0,1-3.834-1.449l-26.7-25.77a3.058,3.058,0,0,0-3.012-.727,8.893,8.893,0,0,1-2.075.448,10.265,10.265,0,0,1-7.533-2.972,10.144,10.144,0,0,1-3-7.533,1.022,1.022,0,0,1,.5-.854,1.1,1.1,0,0,1,1.056-.033l5.691,3.175a5.549,5.549,0,0,0,2.853-4.5l-6.357-3.549a1.017,1.017,0,0,1-.169-1.665,10.125,10.125,0,0,1,6.1-2.488,9.574,9.574,0,0,1,7.027,2.722,10.581,10.581,0,0,1,3.226,9.423,3.081,3.081,0,0,0,.965,2.67l27.524,25.137a5.409,5.409,0,0,1,1.694,3.745A4.092,4.092,0,0,1,2465.356,1569.865Z" transform="translate(-1061.832 -1036.894)" fill="#1a4ea2"/>
    <path id="Path_36647" data-name="Path 36647" d="M2461.284,1571.235a5.311,5.311,0,0,1-3.834-1.449l-26.7-25.77a3.057,3.057,0,0,0-3.012-.727,8.9,8.9,0,0,1-2.075.448,10.263,10.263,0,0,1-7.533-2.972,10.144,10.144,0,0,1-3-7.533,1.023,1.023,0,0,1,.5-.854,1.1,1.1,0,0,1,1.056-.033l5.691,3.175a5.549,5.549,0,0,0,2.853-4.5l-6.357-3.549a1.017,1.017,0,0,1-.169-1.665,10.126,10.126,0,0,1,6.1-2.488,9.574,9.574,0,0,1,7.026,2.723,10.58,10.58,0,0,1,3.226,9.423,3.082,3.082,0,0,0,.965,2.67l27.524,25.137a5.409,5.409,0,0,1,1.694,3.745,4.091,4.091,0,0,1-3.957,4.215Z" transform="translate(-1058.488 -1038.02)" fill="#b6c7ff"/>
    <path id="Path_36648" data-name="Path 36648" d="M2520.754,1624.75l20.747,18.586-2.618,2.689-20.323-18.989Z" transform="translate(-1143.477 -1121.369)" fill="#fff"/>
    <path id="Path_36649" data-name="Path 36649" d="M2493.684,1574.874c-.5,3.49-10.857,10.377-14.271,12.949a4.552,4.552,0,0,1-2.548.844c-3.531.193-8-2.352-8.79-2.5-1-.184-4.31,1.561-7.043,3.4s-20.306.46-23.122-.918-3.73-19.562-3.73-23.421,1.491-2.755,1.491-2.755c2.652,2.021,23.68,2.113,23.68,2.113s6.072-.184,6.652-.092a24.016,24.016,0,0,0,5.884-.918c2.239-.642,2.652-.276,4.559-.092s8.532-10.747,9.443-14.513-.606-4.858-.606-4.858c.827-.184,6.411,1,7.406,4.032S2494.182,1571.382,2493.684,1574.874Z" transform="translate(-1074.145 -1055.096)" fill="#01939b"/>
    <path id="Path_36650" data-name="Path 36650" d="M2592.851,1676.747c-3.53.193-8-2.352-8.79-2.5-.995-.184-4.31,1.561-7.044,3.4l-1.681-24.982s6.073-.184,6.652-.092a24.015,24.015,0,0,0,5.885-.919c2.239-.642,2.653-.276,4.559-.092Z" transform="translate(-1190.128 -1143.177)" fill="#1a4ea2" opacity="0.26"/>
    <path id="Path_36651" data-name="Path 36651" d="M2612.63,1658.48s1.819,14.953,2.073,21.676" transform="translate(-1220.771 -1149.083)" fill="none" stroke="#1a4ea2" stroke-miterlimit="10" stroke-width="1"/>
    <path id="Path_36652" data-name="Path 36652" d="M2184.709,2584.54s.512,14.427-1.977,17.235,7.136,8.668,10.44,6.993a28.769,28.769,0,0,1,4.562-2.01s-1.618-10.308-.322-18.126S2184.709,2584.54,2184.709,2584.54Z" transform="translate(-867.204 -1909.266)" fill="#ffc890"/>
    <path id="Path_36653" data-name="Path 36653" d="M2044.208,2696.036a6.717,6.717,0,0,1-.423,2.284l-52.507.744s-1.332-.426-1.848-2.709a8.91,8.91,0,0,1-.2-1.907c-.023-3.971,19.685-7.606,26.2-10.443,8.415-3.666,7.825-1.449,7.825-1.449a26.375,26.375,0,0,0,15.506-.091s2.888-4.65,4.988,8.974A20.355,20.355,0,0,1,2044.208,2696.036Z" transform="translate(-708.545 -1989.83)" fill="#454b6b"/>
    <path id="Path_36654" data-name="Path 36654" d="M2045.125,2762.08a6.707,6.707,0,0,1-.423,2.285l-52.507.744s-1.333-.426-1.848-2.709Z" transform="translate(-709.462 -2055.874)" fill="#20307b"/>
    <path id="Path_36655" data-name="Path 36655" d="M2106.634,2693.142a.349.349,0,0,1-.368-.3,6.914,6.914,0,0,0-1.328-3.581.293.293,0,0,1,.086-.445.4.4,0,0,1,.512.075A7.426,7.426,0,0,1,2107,2692.8a.339.339,0,0,1-.345.337Zm-4.976.772a.349.349,0,0,1-.368-.3,4.519,4.519,0,0,0-1.067-2.934.292.292,0,0,1,.013-.45.406.406,0,0,1,.516.007,4.973,4.973,0,0,1,1.271,3.339.34.34,0,0,1-.345.337A.109.109,0,0,0,2101.659,2693.914Zm10.015-2.113a.349.349,0,0,1-.368-.3c-.2-3.475-2.466-3.586-2.489-3.587a.341.341,0,0,1-.353-.33.355.355,0,0,1,.381-.307c.121,0,2.956.139,3.194,4.19a.34.34,0,0,1-.348.335Z" transform="translate(-799.662 -1994.408)" fill="#fff"/>
    <path id="Path_36656" data-name="Path 36656" d="M2651.629,2584.54s.512,14.427-1.977,17.235,7.136,8.668,10.44,6.993a28.769,28.769,0,0,1,4.562-2.01s-1.618-10.308-.322-18.126S2651.629,2584.54,2651.629,2584.54Z" transform="translate(-1250.857 -1909.266)" fill="#ffc890"/>
    <path id="Path_36657" data-name="Path 36657" d="M2511.128,2696.036a6.711,6.711,0,0,1-.423,2.284l-52.507.744s-1.332-.426-1.848-2.709a8.941,8.941,0,0,1-.2-1.907c-.023-3.971,19.685-7.606,26.2-10.443,8.415-3.666,7.824-1.449,7.824-1.449a26.376,26.376,0,0,0,15.506-.091s2.888-4.65,4.988,8.974A20.355,20.355,0,0,1,2511.128,2696.036Z" transform="translate(-1092.198 -1989.83)" fill="#454b6b"/>
    <path id="Path_36658" data-name="Path 36658" d="M2512.045,2762.08a6.719,6.719,0,0,1-.423,2.285l-52.507.744s-1.332-.426-1.848-2.709Z" transform="translate(-1093.115 -2055.874)" fill="#20307b"/>
    <path id="Path_36659" data-name="Path 36659" d="M2573.563,2693.142a.349.349,0,0,1-.368-.3,6.915,6.915,0,0,0-1.328-3.581.293.293,0,0,1,.087-.445.4.4,0,0,1,.511.075,7.423,7.423,0,0,1,1.462,3.913.339.339,0,0,1-.345.337Zm-4.974.772a.349.349,0,0,1-.368-.3,4.52,4.52,0,0,0-1.067-2.933.292.292,0,0,1,.013-.45.406.406,0,0,1,.516.007,4.971,4.971,0,0,1,1.27,3.339.339.339,0,0,1-.345.337A.12.12,0,0,0,2568.589,2693.914Zm10.013-2.113a.349.349,0,0,1-.368-.3c-.2-3.475-2.466-3.586-2.489-3.586a.34.34,0,0,1-.353-.33.354.354,0,0,1,.38-.307c.121,0,2.956.139,3.194,4.19a.34.34,0,0,1-.348.335Z" transform="translate(-1183.323 -1994.408)" fill="#fff"/>
    <path id="Path_36660" data-name="Path 36660" d="M2157.61,1211.634l36.279-16.644,1.05,2.021-36.135,16.321Z" transform="translate(-846.897 -768.249)" fill="#fff"/>
    <path id="Path_36661" data-name="Path 36661" d="M2304.81,1221.041c-9.481,9.349-72.783-.934-84.134-10.816a65.089,65.089,0,0,1-7.911-2.738,20.168,20.168,0,0,1-5.742-3.407c-2.141-2.078-4.963-4.875-6.451-7.561-1-1.8-1.4-3.545-.6-4.992,0,0-1.2-3.161,1.337-5.118,0,0,.259-4.325,2.938-4.764s7.39-.68,8.436.528,12.131,17.634,14.935,18.168,41.567-.649,45.357-1.659l-3.5-13.376-1-3.83s8.906-16.711,30.767-10.608c0,0,.958,2.6,2.238,6.633C2305.275,1189.463,2311.9,1214.052,2304.81,1221.041Z" transform="translate(-881.356 -747.329)" fill="#ffc890"/>
    <path id="Path_36662" data-name="Path 36662" d="M2217.483,1326.454a20.157,20.157,0,0,1-5.741-3.406c-2.142-2.078-4.963-4.875-6.451-7.561,1.815-.48,5.563-1.221,7.181.3C2214.016,1317.242,2216.292,1323.148,2217.483,1326.454Z" transform="translate(-886.074 -866.758)" fill="#ff8c5a" opacity="0.55"/>
    <path id="Path_36663" data-name="Path 36663" d="M2274.938,1196.09s10-1,14.372,1.2-1.5-3.545-4.573-4.614-10.691,0-10.691,0Zm28.505-21.181c-3.994-1.394-10.018-3.051-15.9-2.267-7.942,1.059-13.953,7.464-16.1,10.071l-1-3.83s8.907-16.711,30.767-10.608C2301.2,1168.277,2302.162,1170.874,2303.443,1174.91Zm-101.5,13.981a7.9,7.9,0,0,1,2.11-.475,12.152,12.152,0,0,1,2.091-.021,11.688,11.688,0,0,1,2.072.337,8.225,8.225,0,0,1,1.023.336c.168.077.336.141.5.234.083.047.164.087.246.139s.161.109.234.171l-.026.085c-.167-.038-.335-.069-.5-.09s-.342-.043-.513-.061q-.514-.06-1.031-.1c-.688-.062-1.378-.111-2.068-.157l-2.07-.155-1.036-.07-1.035-.079Zm1.332-5.118a9.472,9.472,0,0,1,2.35-.678,14.36,14.36,0,0,1,2.382-.19,12.83,12.83,0,0,1,2.4.224,8.06,8.06,0,0,1,1.195.329c.1.039.2.078.294.122a2.416,2.416,0,0,1,.291.141c.094.05.191.114.281.174l.13.111a.974.974,0,0,1,.112.132l-.054.071a1.553,1.553,0,0,0-.536-.186c-.19-.041-.385-.065-.579-.087-.389-.046-.781-.074-1.173-.094-.785-.038-1.573-.047-2.36-.044s-1.575,0-2.363.013l-2.363.052Z" transform="translate(-883.316 -745.198)" fill="#ff8c5a"/>
    <path id="Path_36664" data-name="Path 36664" d="M1989.122,1177.984l-25.047,3.957-14.046-22.691-6.679-8.524-9.411-12.009,1.281-1.546h25.7l19.572,28.33Z" transform="translate(-663.114 -720.741)" fill="#d03e48"/>
    <path id="Path_36665" data-name="Path 36665" d="M1989.122,1177.984h-2.2l-8.6-12.565-18.267-26.7H1933.94l1.281-1.546h25.7l19.572,28.33Z" transform="translate(-663.114 -720.741)" fill="#aa0515"/>
    <path id="Path_36666" data-name="Path 36666" d="M2032.479,1240.434l-25.047,3.957-14.045-22.691-6.68-8.525s19.161,13.521,34.978,14.694c.73.055,1.453.083,2.168.081Z" transform="translate(-706.471 -783.191)" fill="#aa0515" opacity="0.37"/>
    <path id="Path_36667" data-name="Path 36667" d="M2057.652,1290.683c-1.065,1.6-5.3,4.031-8.343,5.1s-6.535-.888-6.535-.888-8.339,2.486-13.2,3.371-15.012-1.418-17.5-6.743c-2.2-4.7.121-24.94.691-29.585v0c.074-.612.118-.951.118-.951l15.314,18.236.033,0,7.146.943a9.236,9.236,0,0,1,2.072-5.105c1.951-2.267,1.394-6.425,3.937-7.074,2.512-.638.9,8.736.855,8.981.085-.145,2.9-4.958,7.065-4.7,4.229.263,2.913,5.77,2.913,5.77a3.284,3.284,0,0,1,2.972,3.9c3.549.355,1.824,4.614,1.824,4.614S2058.719,1289.087,2057.652,1290.683Z" transform="translate(-726.555 -822.472)" fill="#ffc890"/>
    <path id="Path_36668" data-name="Path 36668" d="M2050.238,1291.751s-5.709-4.8-6.308-8.322-1.475,5.809,3.941,9.006Zm9.461-16.833a7.85,7.85,0,0,1-1.253,1.114c-.217.171-.451.312-.677.469s-.468.283-.7.423-.481.26-.726.381-.493.239-.751.336a7.933,7.933,0,0,1-1.6.5l-.026-.047c.941-.557,1.9-1.088,2.843-1.633.956-.528,1.906-1.07,2.869-1.587Zm2.973,3.9a9.041,9.041,0,0,1-1.279,1.24c-.222.193-.462.357-.692.537s-.479.33-.718.495-.492.309-.742.456-.5.292-.767.418a12.034,12.034,0,0,1-1.627.7l-.033-.042c.46-.36.942-.688,1.424-1.014l1.454-.969,1.471-.942q.735-.471,1.48-.927Zm1.824,4.613a5.967,5.967,0,0,1-.99,1.069,9.4,9.4,0,0,1-1.13.855,10.022,10.022,0,0,1-1.24.687,6.035,6.035,0,0,1-1.377.475l-.029-.045c.777-.534,1.57-1.044,2.354-1.566.795-.507,1.581-1.026,2.383-1.521Zm-28.831-7.358s-8.694.533-12.537.427,8.977-2.111,8.365-3.68-11.261-14.03-11.261-14.03v0c.074-.611.168-1.633.168-1.633Z" transform="translate(-734.018 -819.332)" fill="#ff8c5a"/>
    <path id="Path_36669" data-name="Path 36669" d="M2152.781,2543.682s-.911,8.654,2.05,9.565,24.823,3.644,26.531-1.253,2.619-10.248-1.253-9.678S2153.123,2539.468,2152.781,2543.682Zm80.718,1.669s1.119,8.63,4.21,8.829,24.991-2.208,25.518-7.367.172-10.576-3.462-9.125S2232.854,2541.175,2233.5,2545.351Z" transform="translate(-842.82 -1871.302)" fill="#08676c"/>
    <rect id="Rectangle_18612" data-name="Rectangle 18612" width="19.098" height="34.337" transform="translate(1264.537 355.722)" fill="#ccd5ff"/>
    <rect id="Rectangle_18613" data-name="Rectangle 18613" width="19.098" height="34.337" transform="translate(1263.396 354.111)" fill="#f2f4ff"/>
    <path id="Path_36670" data-name="Path 36670" d="M2272.764,850.978a4.614,4.614,0,0,0,3.478.97c2.75-.371,4.491-1.085,5.631-2.472a7.108,7.108,0,0,0,1.228-2.359s.289-1.044-.218-1.409a.961.961,0,0,0-.8-.078c-1.525.36-9.981,1.791-11.056,1.878C2270.324,847.565,2271.055,849.674,2272.764,850.978Z" transform="translate(-939.869 -481.154)" fill="#bd3132"/>
    <path id="Path_36671" data-name="Path 36671" d="M2272.25,847.508a4.13,4.13,0,0,0,2.28,1.078c1,.169,7.625-1.369,8.413-1.575s1.164-1.3,1.164-1.3a.961.961,0,0,0-.8-.078C2281.78,845.99,2273.325,847.421,2272.25,847.508Z" transform="translate(-941.092 -481.155)" fill="#f9ffff"/>
    <path id="Path_36672" data-name="Path 36672" d="M2281.99,868.43a4.614,4.614,0,0,0,3.478.97c2.75-.371,4.491-1.085,5.631-2.472A16.977,16.977,0,0,0,2281.99,868.43Z" transform="translate(-949.095 -498.607)" fill="#ff767b"/>
    <path id="Path_36673" data-name="Path 36673" d="M2995.769,2477.55H2965.02a2.633,2.633,0,0,0-2.71,2.531v12.661a2.633,2.633,0,0,0,2.71,2.531h2.706a2.425,2.425,0,0,1-.673-1.661V2482.93a2.633,2.633,0,0,1,2.71-2.532h21.854a2.633,2.633,0,0,1,2.71,2.532v10.683a2.427,2.427,0,0,1-.673,1.661h2.113a2.633,2.633,0,0,0,2.709-2.531v-12.661A2.632,2.632,0,0,0,2995.769,2477.55Zm12.357,52.439h-55.6a4.564,4.564,0,0,1-4.489-4.049l-2.293-18.4a4.6,4.6,0,0,1,4.488-5.224H3010.1a4.6,4.6,0,0,1,4.5,5.145l-1.977,18.4A4.567,4.567,0,0,1,3008.125,2529.989Z" transform="translate(-1494.445 -1822.085)" fill="#08676c"/>
    <path id="Path_36674" data-name="Path 36674" d="M3005.678,2557.972H2932.92V2544.85a3.417,3.417,0,0,1,3.417-3.417h65.925a3.417,3.417,0,0,1,3.417,3.417Z" transform="translate(-1483.942 -1874.576)" fill="#ffad1e"/>
    <path id="Path_36675" data-name="Path 36675" d="M2998.774,2591.289l-.151-.64h-12.985v-2.778h12.327l-.556-2.353a2,2,0,0,0-1.979-1.485h-71.036a2,2,0,0,0-1.992,1.547l-.456,2.29h9.448v2.778h-10l-.14.7a1.936,1.936,0,0,0,1.993,2.24h8.149v2.965a3.426,3.426,0,0,0,3.536,3.3h5.775a3.426,3.426,0,0,0,3.537-3.3v-2.965h28.55v2.965a3.426,3.426,0,0,0,3.536,3.3h5.775a3.426,3.426,0,0,0,3.537-3.3v-2.965H2996.8A1.931,1.931,0,0,0,2998.774,2591.289Zm-54.533-.64v-2.778h28.55v2.778Z" transform="translate(-1474.327 -1909.579)" fill="#01939b"/>
    <rect id="Rectangle_18614" data-name="Rectangle 18614" width="56.75" height="2.532" transform="translate(1458.802 666.858)" fill="#fff"/>
  </g>
</svg>
