<svg id="v-2" xmlns="http://www.w3.org/2000/svg" width="486.76" height="463.506" viewBox="0 0 486.76 463.506">
  <path id="Path_36676" data-name="Path 36676" d="M1598.084,820.1a184.827,184.827,0,0,1-14.418,48.615,275.938,275.938,0,0,1-24.107,42.916q-3.09,4.563-6.447,9.192-7.115,9.814-14.43,18.7-.532.648-1.066,1.289-2.9,3.5-5.838,6.855c-.144.166-.29.335-.437.5q-1.934,2.2-3.873,4.34-4.719,5.2-9.5,10.049c-30.787,31.217-63.472,51.626-96.213,63.527a224.161,224.161,0,0,1-26.057,7.721,221.739,221.739,0,0,1-52.009,5.68q-4.32-.036-8.607-.239A231.339,231.339,0,0,1,1300.64,1035a240.769,240.769,0,0,1-49.011-15.413q-8.886-3.875-17.256-8.355a233.67,233.67,0,0,1-25.751-15.963q-.4-.279-.789-.565-4.749-3.423-9.214-7.016c-.272-.219-.543-.437-.813-.658q-1.888-1.532-3.722-3.1-.472-.4-.939-.8-3.124-2.689-6.086-5.455-.558-.518-1.11-1.041c-18.672-17.7-32.236-37.471-38.842-57-4.429-13.091-5.731-26.076-3.352-38.255.939-4.805,1.538-9.409,2.98-13.477,28.183-79.49,63.541-91.664,94.061-142.284,26.262-43.555,26.242-37.424,26.242-37.424C1334.678,594.672,1621.376,657.271,1598.084,820.1Z" transform="translate(-1112.667 -575.986)" fill="#e1e7ff" opacity="0.16"/>
  <path id="Path_36677" data-name="Path 36677" d="M2728.172,2301.954H2715.1a3.173,3.173,0,0,1-3.173-3.173v-7.368h19.418v7.368A3.173,3.173,0,0,1,2728.172,2301.954Zm85.248,0h-13.072a3.173,3.173,0,0,1-3.173-3.173v-7.367h19.417v7.368a3.173,3.173,0,0,1-3.173,3.173Z" transform="translate(-2402.244 -1929.271)" fill="#ced7ff"/>
  <g id="Group_70604" data-name="Group 70604" transform="translate(309.684 362.143)">
    <rect id="Rectangle_18615" data-name="Rectangle 18615" width="19.417" height="5.48" transform="translate(0)" fill="#cadced"/>
    <rect id="Rectangle_18616" data-name="Rectangle 18616" width="19.417" height="5.48" transform="translate(85.247)" fill="#cadced"/>
  </g>
  <path id="Path_36678" data-name="Path 36678" d="M2732.01,1675.817v81.333q-3.091,4.563-6.447,9.192-7.115,9.814-14.43,18.7-.532.648-1.066,1.289h-138.35a2.328,2.328,0,0,1-2.326-2.329V1675.817a2.326,2.326,0,0,1,2.327-2.326H2729.68a2.326,2.326,0,0,1,2.329,2.326Z" transform="translate(-2285.117 -1421.506)" fill="#fff"/>
  <circle id="Ellipse_6303" data-name="Ellipse 6303" cx="43.248" cy="43.248" r="43.248" transform="translate(277.698 308.762) rotate(-45)" fill="#e1e7ff"/>
  <circle id="Ellipse_6304" data-name="Ellipse 6304" cx="40.03" cy="40.03" r="40.03" transform="translate(282.25 308.762) rotate(-45)" fill="#abbbf4"/>
  <path id="Path_36679" data-name="Path 36679" d="M2772.522,1881.658a7.851,7.851,0,0,0,.4-.738c2.017-4.283-3.913-4.2-6.937-4.816-4.473-.906-6.6-4.966-8.029-8.841a8.874,8.874,0,0,0-3.09-4.347,8.145,8.145,0,0,0,.938-2.536c4.091,1.836,8.488,4.579,12.813,3.258,11.74-3.594,10.388-22.494,1.246-28.088a7.866,7.866,0,0,0-.738-.4c-4.284-2.017-4.2,3.913-4.816,6.937-.906,4.473-4.967,6.6-8.841,8.029a10.088,10.088,0,0,0-3.3,1.928,8.13,8.13,0,0,0-2.951-1.13c1.759-3.7,3.806-7.607,2.63-11.458-3.594-11.741-22.494-10.388-28.088-1.246a7.777,7.777,0,0,0-.4.738c-2.017,4.284,3.913,4.2,6.937,4.816,4.473.906,6.6,4.966,8.029,8.841a10.042,10.042,0,0,0,1.976,3.357,8.122,8.122,0,0,0-.543,3.2c-3.885-1.812-8.021-4.173-12.094-2.928-11.74,3.594-10.388,22.494-1.246,28.088a7.834,7.834,0,0,0,.738.4c4.284,2.017,4.2-3.913,4.816-6.937.906-4.473,4.966-6.6,8.841-8.029a8.715,8.715,0,0,0,4.421-3.2,8.119,8.119,0,0,0,2.728.438c-1.819,4.262-4.912,8.882-3.525,13.423C2748.03,1892.153,2766.928,1890.8,2772.522,1881.658Z" transform="translate(-2408.227 -1550.938)" fill="#859cdd"/>
  <path id="Path_36680" data-name="Path 36680" d="M2747.059,1877.631c-2.763-4.322-.511-10.141-.091-14.972l5-4.811s2.381.423,4.585,3.482c2.414,3.349,5.559,6.687,10.11,6.356,3.078-.221,8.767-1.9,7.976,2.773a7.77,7.77,0,0,1-.188.819C2771.517,1881.587,2753.678,1887.972,2747.059,1877.631Zm-3.876-41.443c2.763,4.322.511,10.141.091,14.972l-5,4.811s-2.381-.422-4.585-3.481c-2.414-3.349-5.559-6.687-10.111-6.356-3.078.221-8.766,1.9-7.976-2.773a7.834,7.834,0,0,1,.188-.819C2718.724,1832.232,2736.564,1825.847,2743.183,1836.188Zm22.658,18.784c-4.322,2.763-10.141.511-14.972.091l-4.811-5s.423-2.381,3.481-4.585c3.349-2.414,6.687-5.559,6.356-10.11-.221-3.078-1.9-8.766,2.773-7.976a7.838,7.838,0,0,1,.819.188C2769.8,1830.514,2776.183,1848.353,2765.841,1854.973Zm-41.443,3.874c4.322-2.763,10.141-.511,14.972-.091l4.811,5s-.422,2.381-3.481,4.585c-3.349,2.414-6.687,5.559-6.356,10.111.22,3.078,1.9,8.766-2.773,7.976a7.843,7.843,0,0,1-.819-.188C2720.444,1883.305,2714.057,1865.466,2724.4,1858.846Z" transform="translate(-2405.205 -1547.914)" fill="#e8f4ff"/>
  <circle id="Ellipse_6305" data-name="Ellipse 6305" cx="9.742" cy="9.742" r="9.742" transform="matrix(0.874, -0.486, 0.486, 0.874, 326.102, 304.289)" fill="#859cdd"/>
  <circle id="Ellipse_6306" data-name="Ellipse 6306" cx="8.102" cy="8.102" r="8.102" transform="translate(328.376 304.775) rotate(-28.298)" fill="#e1e7ff"/>
  <path id="Path_36681" data-name="Path 36681" d="M3216.641,1738.2h25.931a.841.841,0,0,1,.842.842v44.547a.842.842,0,0,1-.842.842h-25.931a.841.841,0,0,1-.842-.842v-44.547A.841.841,0,0,1,3216.641,1738.2Zm1.032,59.783h9.559a.841.841,0,0,1,.842.842v10.716a.842.842,0,0,1-.842.842h-9.559a.842.842,0,0,1-.842-.842v-10.716A.841.841,0,0,1,3217.673,1797.983Zm0,17.936h9.559a.842.842,0,0,1,.842.842v10.716a.841.841,0,0,1-.842.842h-9.559a.841.841,0,0,1-.842-.841v-10.716A.842.842,0,0,1,3217.673,1815.919Zm13.624-17.936h9.559a.841.841,0,0,1,.842.842v10.716a.842.842,0,0,1-.842.842H3231.3a.842.842,0,0,1-.842-.842v-10.716A.842.842,0,0,1,3231.3,1797.983Z" transform="translate(-2816.291 -1474.68)" fill="#e1e7ff"/>
  <rect id="Rectangle_18617" data-name="Rectangle 18617" width="11.242" height="12.399" rx="4.721" transform="translate(414.163 341.238)" fill="#e1e7ff"/>
  <path id="Path_36682" data-name="Path 36682" d="M2598.138,1714.2a1.407,1.407,0,1,1-1.407-1.407A1.407,1.407,0,0,1,2598.138,1714.2Zm0,96.45a1.407,1.407,0,1,1-1.407-1.407,1.407,1.407,0,0,1,1.407,1.407Zm149.227-96.45a1.407,1.407,0,1,1-1.407-1.407A1.407,1.407,0,0,1,2747.365,1714.2Z" transform="translate(-2306.428 -1453.805)" fill="#bbd6f2"/>
  <g id="Group_70605" data-name="Group 70605" transform="translate(404.639 267.908)">
    <path id="Path_36683" data-name="Path 36683" d="M3248.481,1765.261h-3.617c-.159,0-.288-.547-.288-1.222h0c0-.675.129-1.222.288-1.222h3.617c.159,0,.288.547.288,1.222h0C3248.77,1764.714,3248.642,1765.261,3248.481,1765.261Zm0,6.56h-3.617c-.159,0-.288-.547-.288-1.222h0c0-.675.129-1.223.288-1.223h3.617c.159,0,.288.547.288,1.223h0C3248.77,1771.274,3248.642,1771.821,3248.481,1771.821Zm0,6.56h-3.617c-.159,0-.288-.547-.288-1.222h0c0-.675.129-1.222.288-1.222h3.617c.159,0,.288.547.288,1.222h0C3248.77,1777.834,3248.642,1778.382,3248.481,1778.382Z" transform="translate(-3244.576 -1762.816)" fill="#abbbf4"/>
  </g>
  <g id="Group_70606" data-name="Group 70606" transform="translate(411.219 267.908)">
    <path id="Path_36684" data-name="Path 36684" d="M3285.391,1765.261h-3.617c-.159,0-.288-.547-.288-1.222h0c0-.675.129-1.222.288-1.222h3.617c.159,0,.288.547.288,1.222h0C3285.68,1764.714,3285.552,1765.261,3285.391,1765.261Zm0,6.56h-3.617c-.159,0-.288-.547-.288-1.222h0c0-.675.129-1.223.288-1.223h3.617c.159,0,.288.547.288,1.223h0C3285.68,1771.274,3285.552,1771.821,3285.391,1771.821Zm0,6.56h-3.617c-.159,0-.288-.547-.288-1.222h0c0-.675.129-1.222.288-1.222h3.617c.159,0,.288.547.288,1.222h0C3285.68,1777.834,3285.552,1778.382,3285.391,1778.382Z" transform="translate(-3281.486 -1762.816)" fill="#abbbf4"/>
  </g>
  <g id="Group_70607" data-name="Group 70607" transform="translate(417.799 267.908)">
    <path id="Path_36685" data-name="Path 36685" d="M3322.3,1765.261h-3.617c-.159,0-.288-.547-.288-1.222h0c0-.675.129-1.222.288-1.222h3.617c.159,0,.288.547.288,1.222h0C3322.59,1764.714,3322.46,1765.261,3322.3,1765.261Zm0,6.56h-3.617c-.159,0-.288-.547-.288-1.222h0c0-.675.129-1.223.288-1.223h3.617c.159,0,.288.547.288,1.223h0C3322.59,1771.274,3322.46,1771.821,3322.3,1771.821Zm0,6.56h-3.617c-.159,0-.288-.547-.288-1.222h0c0-.675.129-1.222.288-1.222h3.617c.159,0,.288.547.288,1.222h0C3322.59,1777.834,3322.46,1778.382,3322.3,1778.382Z" transform="translate(-3318.396 -1762.816)" fill="#abbbf4"/>
  </g>
  <path id="Path_36686" data-name="Path 36686" d="M985.427,576.106s-20.087,83.56-5.083,94.2c14.454,10.248,204.837,7.207,211.15-7.232s-.827-47.461-.827-47.461L1004.452,582.6Z" transform="translate(-974.778 -519.754)" fill="#afbeff" opacity="0.19"/>
  <path id="Path_36687" data-name="Path 36687" d="M1039.967,575.687h-5.459A41.041,41.041,0,0,1,1039.967,575.687Zm182.057,0v71.058H1062.636V591.477a17.733,17.733,0,0,0-.585-2.594,15.457,15.457,0,0,0-2.364-4.723c-4.777-6.467-13.869-8.115-19.72-8.472Z" transform="translate(-1023.86 -519.334)" fill="#afbeff"/>
  <path id="Path_36688" data-name="Path 36688" d="M1331.8,623.63v4.723H1178.114a15.462,15.462,0,0,0-2.364-4.723Z" transform="translate(-1139.923 -558.805)" fill="#899fef"/>
  <path id="Path_36689" data-name="Path 36689" d="M1054.118,584.577h157.871V576.1H1027.73Z" transform="translate(-1018.29 -519.752)" fill="#e1e7ff"/>
  <rect id="Rectangle_18618" data-name="Rectangle 18618" width="4.464" height="71.058" transform="translate(193.699 56.352)" fill="#cfd9ff"/>
  <path id="Path_36690" data-name="Path 36690" d="M1241.757,297.526a49.483,49.483,0,0,0-21.286,24.255,50.406,50.406,0,0,0-2.909,25.407H1034.51a114.023,114.023,0,0,1,5.452-17.841c4.965-12.542,13.672-27.778,27.521-31.821Z" transform="translate(-1023.861 -290.836)" fill="#e1e7ff"/>
  <path id="Path_36691" data-name="Path 36691" d="M1217.561,458.992H1034.51a114.023,114.023,0,0,1,5.452-17.841,756.43,756.43,0,0,0,120.5-.784c28.507-2.612,47.514-4.943,60.009-6.782A50.427,50.427,0,0,0,1217.561,458.992Z" transform="translate(-1023.861 -402.641)" fill="#afbeff"/>
  <rect id="Rectangle_18619" data-name="Rectangle 18619" width="187.179" height="5.518" transform="translate(34.314 5.106)" fill="#afbeff"/>
  <path id="Path_36692" data-name="Path 36692" d="M1034.51,575.769s25.265-1.964,27.878,14.46v56.6l-27.878,17.024Z" transform="translate(-1023.861 -519.416)" fill="#fff"/>
  <path id="Path_36693" data-name="Path 36693" d="M1034.51,664.188l28.128-17.024h159.387V576.1h10.611v88.083Z" transform="translate(-1023.861 -519.752)" fill="#e1e7ff"/>
  <g id="Group_70608" data-name="Group 70608" transform="translate(72.924 105.541)" opacity="0.35">
    <rect id="Rectangle_18620" data-name="Rectangle 18620" width="109.81" height="3.347" transform="translate(0)" fill="#1a4ea1"/>
    <rect id="Rectangle_18621" data-name="Rectangle 18621" width="109.81" height="3.347" transform="translate(0 4.993)" fill="#1a4ea1"/>
    <rect id="Rectangle_18622" data-name="Rectangle 18622" width="109.81" height="3.347" transform="translate(0 9.986)" fill="#1a4ea1"/>
    <rect id="Rectangle_18623" data-name="Rectangle 18623" width="109.81" height="3.347" transform="translate(0 14.979)" fill="#1a4ea1"/>
  </g>
  <rect id="Rectangle_18624" data-name="Rectangle 18624" width="28.646" height="3.347" transform="translate(42.424 72.367)" fill="#1a4ea1"/>
  <rect id="Rectangle_18625" data-name="Rectangle 18625" width="28.646" height="3.347" transform="translate(42.424 77.359)" fill="#1a4ea1"/>
  <rect id="Rectangle_18626" data-name="Rectangle 18626" width="28.646" height="3.347" transform="translate(42.424 82.354)" fill="#1a4ea1"/>
  <rect id="Rectangle_18627" data-name="Rectangle 18627" width="28.646" height="3.347" transform="translate(42.424 87.346)" fill="#1a4ea1"/>
  <g id="Group_70609" data-name="Group 70609" transform="translate(72.924 72.367)" opacity="0.59">
    <rect id="Rectangle_18628" data-name="Rectangle 18628" width="109.81" height="3.347" transform="translate(0 0)" fill="#1a4ea1"/>
    <rect id="Rectangle_18629" data-name="Rectangle 18629" width="109.81" height="3.347" transform="translate(0 4.993)" fill="#1a4ea1"/>
    <rect id="Rectangle_18630" data-name="Rectangle 18630" width="109.81" height="3.347" transform="translate(0 9.986)" fill="#1a4ea1"/>
    <rect id="Rectangle_18631" data-name="Rectangle 18631" width="109.81" height="3.347" transform="translate(0 14.979)" fill="#1a4ea1"/>
  </g>
  <rect id="Rectangle_18632" data-name="Rectangle 18632" width="28.646" height="3.347" transform="translate(42.424 105.541)" fill="#1a4ea1"/>
  <rect id="Rectangle_18633" data-name="Rectangle 18633" width="28.646" height="3.347" transform="translate(42.424 110.533)" fill="#1a4ea1"/>
  <rect id="Rectangle_18634" data-name="Rectangle 18634" width="28.646" height="3.347" transform="translate(42.424 115.527)" fill="#1a4ea1"/>
  <rect id="Rectangle_18635" data-name="Rectangle 18635" width="28.646" height="3.347" transform="translate(42.424 120.52)" fill="#1a4ea1"/>
  <path id="Path_36694" data-name="Path 36694" d="M2260.339,2344.89c-.144.166-.29.334-.437.5q-1.934,2.2-3.873,4.34-4.719,5.2-9.5,10.05c-30.787,31.217-63.472,51.626-96.213,63.527a224.165,224.165,0,0,1-26.056,7.721,221.754,221.754,0,0,1-52.009,5.68q-4.32-.037-8.607-.239a231.372,231.372,0,0,1-34.442-4.243V2344.89Z" transform="translate(-1841.226 -1973.215)" fill="#4977ad"/>
  <path id="Path_36695" data-name="Path 36695" d="M1554.579,2280.661s-10-27.487,14.993-47.478,39.149,23.323,18.325,38.316S1554.579,2280.661,1554.579,2280.661Z" transform="translate(-1449.595 -1877.168)" fill="#ced7ff"/>
  <path id="Path_36696" data-name="Path 36696" d="M1178.076,1751.528s-.177-.007-.512-.033c-.144-.009-.317-.024-.518-.042-.157-.016-.33-.031-.521-.053-4.513-.487-18.032-2.754-29.291-12.93l-.133-.295c-4.429-13.091-5.731-26.076-3.352-38.255q1.409-7.208,2.98-13.477c12.546-3.806,29.03,2.526,32.925,21.79C1185.385,1736.585,1178.076,1751.528,1178.076,1751.528Zm23.808-41.945s-27.551-24.843-11.725-53.579c19.617-35.621,64.535-1.724,47.014,25.9S1201.884,1709.583,1201.884,1709.583Z" transform="translate(-1112.663 -1394.527)" fill="#ccd5ff"/>
  <path id="Path_36697" data-name="Path 36697" d="M1446.177,1799.424a289.537,289.537,0,0,0-10.508,40.054c-.009.042-.016.086-.024.129-1.148,6.137-2.162,12.462-3.341,19.787-.354,2.213-.724,4.515-1.117,6.928-2.792,18.034-3.263,36.536-3.718,54.43-.1,3.831-.2,7.752-.321,11.667q-.472-.4-.939-.8c.113-3.653.206-7.311.3-10.887.456-17.926.931-36.458,3.731-54.557.392-2.415.762-4.719,1.117-6.93,1.179-7.331,2.2-13.661,3.345-19.811.007-.042.016-.082.022-.124a297.087,297.087,0,0,1,10.541-40.183.482.482,0,0,1,.915.3Zm27.559,97.594a205.242,205.242,0,0,0-22.824,30.543l-.215.348c-3.049,4.949-6.02,10.178-9.01,15.843q-.4-.279-.789-.565c3.048-5.774,6.082-11.093,9.194-16.133.075-.122.151-.246.228-.368a205.933,205.933,0,0,1,22.7-30.315.482.482,0,0,1,.713.647Z" transform="translate(-1345.732 -1524.469)" fill="#ecefff"/>
  <path id="Path_36698" data-name="Path 36698" d="M1499.217,2095.993s27.249-1.282,32.378-29.492-32.378-28.851-37.507-3.847S1499.217,2095.993,1499.217,2095.993Z" transform="translate(-1400.33 -1726.445)" fill="#abbbf4"/>
  <path id="Path_36699" data-name="Path 36699" d="M1272.84,2025.464c-4.695,9.706-9.276,20.447-13.619,31.928-.027.073-.055.148-.084.224-5,13.218-9.746,27.652-13.838,42.019-.273-.219-.543-.436-.813-.658,4.057-14.206,8.756-28.467,13.694-41.545.018-.051.038-.1.058-.155,4.376-11.592,9-22.437,13.734-32.231a.482.482,0,0,1,.869.419Zm-39.1,64.158q-.558-.519-1.11-1.042a263.706,263.706,0,0,0-9.356-43.579c-.02-.067-.042-.133-.062-.2-5.4-17.241-11.536-28.886-15.739-35.625a61.923,61.923,0,0,0-7.936-10.634.482.482,0,0,1,.671-.691c.137.135,3.427,3.359,8.053,10.772,4.256,6.819,10.475,18.617,15.932,36.088.02.062.038.124.058.186A266.278,266.278,0,0,1,1233.74,2089.622Z" transform="translate(-1159.349 -1687.934)" fill="#ecefff"/>
  <circle id="Ellipse_6307" data-name="Ellipse 6307" cx="3.774" cy="3.774" r="3.774" transform="matrix(0.23, -0.973, 0.973, 0.23, 46.702, 101.229)" fill="#1a4ea1"/>
  <circle id="Ellipse_6308" data-name="Ellipse 6308" cx="3.774" cy="3.774" r="3.774" transform="matrix(0.23, -0.973, 0.973, 0.23, 57.709, 101.229)" fill="#1a4ea1"/>
  <path id="Path_36700" data-name="Path 36700" d="M2072.71,2535.421s2.855,12.251,1.2,15.07,7.554,6.217,10.1,4.231a25.069,25.069,0,0,1,3.564-2.483s-3.11-8.544-3.312-15.447S2072.71,2535.421,2072.71,2535.421Z" transform="translate(-1876.98 -2128.057)" fill="#ffc890"/>
  <path id="Path_36701" data-name="Path 36701" d="M1962.16,2629.094a5.85,5.85,0,0,1-.368,1.991l-45.754.649s-1.161-.371-1.61-2.361a7.784,7.784,0,0,1-.174-1.662c-.02-3.46,17.154-6.627,22.827-9.1,7.333-3.194,6.818-1.262,6.818-1.262a22.984,22.984,0,0,0,13.512-.079s2.517-4.052,4.346,7.82a17.684,17.684,0,0,1,.4,4Z" transform="translate(-1746.772 -2196.49)" fill="#454b6b"/>
  <path id="Path_36702" data-name="Path 36702" d="M1962.96,2686.67a5.85,5.85,0,0,1-.368,1.991l-45.754.649s-1.161-.371-1.61-2.361Z" transform="translate(-1747.572 -2254.064)" fill="#20307b"/>
  <path id="Path_36703" data-name="Path 36703" d="M2016.6,2626.575a.3.3,0,0,1-.321-.261,6.027,6.027,0,0,0-1.157-3.12.256.256,0,0,1,.075-.388.352.352,0,0,1,.446.065,6.472,6.472,0,0,1,1.275,3.409.3.3,0,0,1-.3.294Zm-4.334.672a.3.3,0,0,1-.321-.261,3.94,3.94,0,0,0-.93-2.556.254.254,0,0,1,.011-.392.354.354,0,0,1,.45.006,4.333,4.333,0,0,1,1.107,2.909.3.3,0,0,1-.3.294Zm8.726-1.842a.3.3,0,0,1-.321-.263c-.178-3.028-2.149-3.125-2.169-3.125a.3.3,0,0,1-.308-.288.31.31,0,0,1,.332-.268c.105,0,2.575.121,2.783,3.651a.3.3,0,0,1-.3.292Z" transform="translate(-1826.213 -2200.48)" fill="#fff"/>
  <path id="Path_36704" data-name="Path 36704" d="M1916.942,361.292c-.614,3.069-7.876,12.478-11.253,15.342s-10.637,0-10.637,0a167.553,167.553,0,0,1-14.5-13l-.007,0a38.8,38.8,0,0,1-5.643-7.048c-4.194-7.466-1.533-64.85-1.533-64.85a43.707,43.707,0,0,1-7.262-.512c-3.888-.614-4.092-4.808-8.594-5.727s-8.386-3.376-6.853-4.912,12.992-1.021,13.4-1.431-1.431-4.706-3.272-9-5.831-4.5-5.831-5.523c0-.39.6-.944,1.429-1.5a16.711,16.711,0,0,1,4.4-2.076c1.739-.41,4.808.922,4.808.922a7.339,7.339,0,0,1,3.886-1.945c2.455-.408,6.035,4.194,6.035,4.194s.512-.408,2.557,0,11.456,21.38,11.456,28.846,6.547,44.9,7.876,46.951c.995,1.527,9.861,7.615,14.286,10.6,1.5,1.013,2.49,1.666,2.49,1.666C1918.067,352.374,1917.555,358.223,1916.942,361.292Z" transform="translate(-1694.234 -260)" fill="#ffc890"/>
  <path id="Path_36705" data-name="Path 36705" d="M2056.294,778.977c-.614,3.068-7.876,12.478-11.253,15.342s-10.637,0-10.637,0a167.553,167.553,0,0,1-14.5-13c.268.219,10.123,8.158,18.8,5.98,7.109-1.786,11.08-14.279,12.34-19,1.5,1.012,2.49,1.666,2.49,1.666C2057.419,770.06,2056.907,775.909,2056.294,778.977Z" transform="translate(-1833.587 -677.685)" fill="#ff9d6c"/>
  <path id="Path_36706" data-name="Path 36706" d="M2149.662,792.573c-1.533,9.411-24.337,32.834-25.516,31.606S2093.4,794,2098.52,793.9c0,0,6.239-.2,12.376-7.466s8.184-15.772,6.75-16.887c-.782-.609-.434-1.4.49-1.666a3.775,3.775,0,0,1,3.192.857c1.952,1.445,8.244,5.189,11.877,7.26,1.509.862,2.559,1.433,2.647,1.433C2136.16,777.435,2151.2,783.161,2149.662,792.573Z" transform="translate(-1897.701 -677.268)" fill="#febd57"/>
  <path id="Path_36707" data-name="Path 36707" d="M2149.662,792.99c-1.533,9.411-24.337,32.834-25.516,31.606s-30.742-30.175-25.627-30.277c0,0,6.239-.2,12.376-7.466s8.184-15.772,6.75-16.887c-.782-.609-.434-1.4.49-1.666,2.065,1.181,1.5,9.042-2.349,15.7s-13.647,11.317-15.478,11.591,7.6,10.92,16.51,13.548,13.131-12.382,16.415-18.555-2.628-10.993-2.628-10.993,1.017-1.376,2.6-3.175c1.509.862,2.559,1.433,2.647,1.433C2136.16,777.852,2151.2,783.579,2149.662,792.99Z" transform="translate(-1897.701 -677.685)" fill="#ff8c3e"/>
  <path id="Path_36708" data-name="Path 36708" d="M2321.762,887.455s-6.118-.294-5.632,3.785,29.423,1.365,35.347-3.785c0,0-.044-1.168,0-2.236s-4.953-.777-4.953-.777Z" transform="translate(-2076.984 -773.094)" fill="#ff8c3e"/>
  <path id="Path_36709" data-name="Path 36709" d="M2312.824,597.584c-2.116,4.4-5.929,22.99-8.47,27.368s-30.638,8.612-29.085,7.059,2.14-13.918,2.14-13.918-10.47-.764-13.517-8.421c-2.038-5.127-1.026-12.533.76-18.058a25.186,25.186,0,0,1,2.61-5.845c.082-.124.162-.239.241-.35,1.606-2.22,4.83-8.709,7.382-14.166a85.838,85.838,0,0,0,3.645-8.419c.437.073,11.472,2,21.027,4.728,6.011,1.717,11.437,3.755,13.266,5.856C2317.625,578.925,2314.942,593.184,2312.824,597.584Z" transform="translate(-2033.154 -508.848)" fill="#ffc890"/>
  <path id="Path_36710" data-name="Path 36710" d="M2350.773,597.583c-1.48.815,3.616-12.62,2.619-15.577s-5.829-9.272-12.89-11.261a14.807,14.807,0,0,0-9.744.507,85.845,85.845,0,0,0,3.645-8.419c.437.073,11.472,2,21.028,4.728,3.777,3.489,4.732,7.772,5.532,11.288C2362.059,583.683,2352.254,596.766,2350.773,597.583Zm4.785,8.921s6.407-.584,9.127-1.943-1.88,13.282-1.88,13.282-2.781-5.61-2.975-8.28S2351.867,607.573,2355.558,606.5Z" transform="translate(-2089.026 -508.848)" fill="#ff9d6c"/>
  <path id="Path_36711" data-name="Path 36711" d="M2443.935,613.444s6.89,10.164,3.2,16.476-5.235,7.89-3.2,7.392,4.268-7.2,13.008-4.382-3.593-20.587-5.244-21.558S2443.935,613.444,2443.935,613.444Zm13.452,25.967s1.5,4.492-1.415,5.463-1.5,11.556.9,11.847.557-5.147,4.052-9.516,1.165-8.448,0-9.031S2457.387,639.41,2457.387,639.41Z" transform="translate(-2181.284 -548.576)" fill="#361029"/>
  <path id="Path_36712" data-name="Path 36712" d="M2136.024,885.569s-5.015,1.723-1.635,4.081,34.633-4.042,30.718-7.287l.339-1.067s2.349-.135,4.629,3.4c0,0,27.629,45.423,22.165,74.567,0,0,3.974,52.99-44.544,51.665s-50.175-10.432-53.155-20.865-3.312-24.342-3.312-24.342,10.868-34.065,5.8-39.908c-.62-.714-2.335-2.586-2.335-2.586l22.207-14.635s5.465-9.593,7.783-14.566,9.16-12.9,11.535-10.6Z" transform="translate(-1892.197 -770.537)" fill="#febd57"/>
  <path id="Path_36713" data-name="Path 36713" d="M2143.512,1017.733s-29.726,21.859-33.313,21.688-3.086-2.09-3.086-2.09l-24.163,6.788,1.476,13.838s-5.747,31.434,52.68,20.5,40.574-43.137,40.574-43.137-11.1-42.88-15.461-47.579-15.8-18.28-23.063-19.219-21.738,6.188-29.063,11.679c0,0,20.607-9.714,28.893-5.529s19.219,20.671,23.661,40.831,6.321,34,1.794,41-45.848,12.289-54.839,9.4c-9.823-3.161-13.411-13.582-9.14-17.255s13.838-4.271,29.555-15.8S2146.355,1015.662,2143.512,1017.733Z" transform="translate(-1885.394 -842.144)" fill="#ff8c3e"/>
  <path id="Path_36714" data-name="Path 36714" d="M1995.429,1281.273a224.161,224.161,0,0,1-26.057,7.721c-.74-7.167-13.718-48.378-16.268-54.548-2.554-6.186-4.438-13.854-6.321-21.922-.368-1.575-1.389-5.065-2.8-9.668-5.809-19-18.187-56.912-18.187-56.912-4.3,2.96-33.76,18.562-33.76,18.562l0,0c.1.266,7.94,20.028,9.008,38.33v.018c1.074,18.42-1.748,30.919-1.748,30.919l-20.848,3.093s-.959-1.75-2.572-4.737c-.47-.868-.995-1.843-1.569-2.909-9.427-17.542-31.823-59.983-33.518-70.367-2.153-13.18,37.659-70.613,40.484-78.952s0-46.539,0-46.539l8.481-1.859s-.64,20.735,17.21,27.415,54.337-2.69,62.409-11.432,2.422-31.609-.68-44.117-15.057-39.409-27.833-42.637c-12.518-3.162-29.13,8.029-29.807,8.488,19.687-18.229,34.788-17.361,49.982-5.663s18.293,51.783,24.614,54.069,4.976-18.158,6.456,63.35c1.088,59.858-4.936,96.647-5.76,121.877-.3,9.128.082,16.74,1.726,23.387,4.134,16.725,6.106,37.236,6.959,49C1995.212,1277.658,1995.338,1279.706,1995.429,1281.273Z" transform="translate(-1686.341 -831.18)" fill="#1a4ea1"/>
  <path id="Path_36715" data-name="Path 36715" d="M1739.378,914.469s-31.3,15.234-40.24,9.108c-3.037-2.083-7.183-9.761-11.49-19.379v0c-8.37-18.694-17.347-44.711-19.973-51.16,0,0,0-1.491-2.151-2.32s-9.108-3.631-14.241-7.943c0,0-.749,3.055-3.74,3.148s-5.982-3.738-5.982-5.607,2.056-3.74,2.056-3.74-.747-5.5,1.963-6.534c0,0-2.519-2.9-.658-4.4-.208.071-6.208,2.087-8.6-1.312-2.43-3.458.467-3.738,4.486-4.205s4.489-1.5,11.031-1.123,15.05,1.4,17.292,4.861,6.449,20.1,8.787,22.995,32.809,36.828,35.333,36.268,9.232-8.563,9.232-8.563a43.736,43.736,0,0,1,16.229,22.687C1743.02,912.151,1739.378,914.469,1739.378,914.469Z" transform="translate(-1517.66 -719.281)" fill="#ffc890"/>
  <path id="Path_36716" data-name="Path 36716" d="M1980.045,1170.937s-31.3,15.234-40.24,9.108c-3.037-2.083-7.183-9.762-11.49-19.379.111.188,5.572,9.544,11.587,14.54,6.075,5.047,38.6-4.393,38.6-12.168s-10.779-23.281-12.742-26.367-8.919,1.052-7.169,2.753,8.96,17.073,4.528,22.033c-4.148,4.642-1.794-1.847-1.794-1.847s1.663-6.65-.956-11.7a30.6,30.6,0,0,0-6.449-8.319c2.149-2.009,9.232-8.563,9.232-8.563a43.736,43.736,0,0,1,16.229,22.687C1983.687,1168.62,1980.045,1170.937,1980.045,1170.937Z" transform="translate(-1758.327 -975.75)" fill="#ff9d6c"/>
  <path id="Path_36717" data-name="Path 36717" d="M2157.544,2072.721a224.215,224.215,0,0,1-26.057,7.721c-.74-7.167-13.718-48.378-16.268-54.548-2.554-6.186-4.438-13.854-6.321-21.922-.368-1.575-1.389-5.065-2.8-9.668-5.809-19-18.187-56.912-18.187-56.912s17.172-9.21,25.979-14.888,15.065-5.678,13.559,0-26.566,19.931-19.656,48.438c1.577,6.507,3.525,14.622,5.676,23.362,7.282,29.555,16.92,66.23,22.554,71.776,4.7,4.626,14.642,2.621,21.123.607C2157.326,2069.106,2157.453,2071.154,2157.544,2072.721Zm-96.127-47.5-20.848,3.093s-.959-1.75-2.572-4.737c0,0,18.621,2.355,19.674-9.409s-10.987-42.513-11.7-48.934,8.184-9.283,8.184-9.283l0,0c.1.266,7.94,20.028,9.008,38.33C2064.242,2012.715,2061.417,2025.224,2061.417,2025.224Z" transform="translate(-1848.456 -1622.627)" fill="#20307b"/>
  <path id="Path_36718" data-name="Path 36718" d="M2036.5,2503.034s12.539.186,22.842-3.573c0,0,1.621-1.435,1.876,1.787s0,6.457-1.362,7.308-19.238,3.575-21.451,2.128S2032.633,2501.512,2036.5,2503.034Z" transform="translate(-1845.812 -2099.969)" fill="#1a4ea1"/>
  <path id="Path_36719" data-name="Path 36719" d="M1682.732,375a22.355,22.355,0,0,1,4.2-1.4c.181-.041.36-.086.542-.124s.365-.07.55-.1c.369-.064.741-.118,1.139-.15.769-.053,1.5-.043,2.236-.023a41.664,41.664,0,0,1,4.368.387,29.218,29.218,0,0,1,4.314.888l-.007.089-4.351-.271c-1.451-.083-2.9-.161-4.353-.2-.725-.025-1.452-.044-2.173-.025a20.434,20.434,0,0,0-2.158.233c-.718.108-1.433.232-2.147.366s-1.427.268-2.139.415Zm.535,4.684a15.8,15.8,0,0,1,3.072-.627,26.581,26.581,0,0,1,6.164-.007,15.345,15.345,0,0,1,3.073.634l0,.089-3.076-.015-3.076.008-6.153.008Zm-1.966,6.534a9.7,9.7,0,0,1,2.365-.778,14.583,14.583,0,0,1,2.419-.285,12.905,12.905,0,0,1,2.452.139,7.933,7.933,0,0,1,1.228.293,5.454,5.454,0,0,1,.6.246,1.775,1.775,0,0,1,.546.391l-.044.077a3.508,3.508,0,0,0-1.153-.236c-.4-.036-.8-.053-1.2-.059-.8-.013-1.6.007-2.4.04s-1.6.06-2.4.108l-2.4.154Zm1.1,5.957a1.614,1.614,0,0,1,.432-.957,1.518,1.518,0,0,1,.193-.192,2.128,2.128,0,0,1,.215-.171c.075-.05.154-.1.233-.143a1.275,1.275,0,0,1,.245-.119,3.7,3.7,0,0,1,2.066-.2,5.7,5.7,0,0,1,.953.267c.148.066.3.129.441.2.072.036.145.07.216.108s.136.085.2.127c.133.088.265.179.392.275a3.025,3.025,0,0,1,.367.307,4.953,4.953,0,0,1,.635.744l-.043.078-.8-.389c-.265-.134-.544-.235-.815-.353a3.761,3.761,0,0,0-.417-.152l-.421-.138c-.14-.049-.286-.07-.428-.107a3.948,3.948,0,0,0-.432-.089,4.246,4.246,0,0,0-1.74.014,2.7,2.7,0,0,0-.414.133,1.947,1.947,0,0,0-.2.095,1.266,1.266,0,0,0-.188.108,1.892,1.892,0,0,0-.619.594Zm45.046-104.294c-.193.385-2.273.244-2.273.244.41-.41-1.431-4.706-3.272-9s-5.831-4.5-5.831-5.523c0-.39.6-.944,1.429-1.5a8.567,8.567,0,0,1,5.078,3.037C1725.715,278.911,1727.636,287.5,1727.444,287.879Zm-.729-16.965a2.421,2.421,0,0,1,.653.279,6.072,6.072,0,0,1,.585.393c.185.144.361.3.537.451s.336.322.5.49q.479.5.906,1.051c.28.368.543.745.8,1.117s.5.765.733,1.155.464.786.669,1.2a14.617,14.617,0,0,1,1.078,2.532l-.047.025c-.436-.793-.907-1.568-1.388-2.335s-.978-1.525-1.488-2.274a26.759,26.759,0,0,0-1.591-2.2,12.475,12.475,0,0,0-.906-1.008c-.161-.158-.327-.312-.5-.454a2.806,2.806,0,0,0-.556-.371Zm9.937,2.261a2.527,2.527,0,0,1,.726.61,3.479,3.479,0,0,1,.479.752,3.387,3.387,0,0,1,.276.855,2.185,2.185,0,0,1-.025.959l-.051.015c-.094-.274-.206-.542-.318-.809s-.238-.53-.365-.791-.248-.525-.378-.786l-.392-.779Zm-2.171,27.53s2.542-.292,2.787.565-3.534,24.378-3.534,24.378S1734.143,303.079,1734.48,300.7Z" transform="translate(-1555.348 -268.969)" fill="#ff9d6c"/>
  <path id="Path_36720" data-name="Path 36720" d="M1762.77,2701.48v8.354h-88.043q-8.886-3.875-17.256-8.354Z" transform="translate(-1535.766 -2266.234)" fill="#d03e48"/>
  <path id="Path_36721" data-name="Path 36721" d="M2206.578,2740q-4.32-.037-8.607-.239l-4.343-19.656-.957-4.327,8.157-1.8,1.354,6.128Z" transform="translate(-1975.557 -2276.502)" fill="#d03e48" opacity="0.55"/>
  <path id="Path_36722" data-name="Path 36722" d="M2427.272,563.4a17.99,17.99,0,0,1-.939,3.082c-3.53,8.738-12.755,11.97-12.755,11.97l-11.919-26.263s-14.492-21.708-16.24-22.775c-.157-.1,4.119-2,10.364-1.9a29.664,29.664,0,0,1,14.786,4.227C2423.678,539.516,2429.6,552.335,2427.272,563.4Z" transform="translate(-2133.939 -479.826)" fill="#4d87db"/>
  <path id="Path_36723" data-name="Path 36723" d="M2426.332,566.485c-3.529,8.738-12.755,11.97-12.755,11.97l-11.919-26.263s-14.492-21.708-16.24-22.775c-.157-.1,4.119-2,10.364-1.9,2.519,2.907,4.747,8.715,8.41,13.991C2415.425,557.691,2420.645,561.584,2426.332,566.485Z" transform="translate(-2133.938 -479.826)" fill="#1a4ea1" opacity="0.66"/>
  <path id="Path_36724" data-name="Path 36724" d="M2311.01,460.085s6.832-6.275,14.111.748,10.944,11.237,10.944,11.237-12.861-37.924-25.054-41.754S2311.01,460.085,2311.01,460.085Z" transform="translate(-2068.346 -399.703)" fill="#4d87db"/>
  <path id="Path_36725" data-name="Path 36725" d="M2343.8,843.671s3.728.453,10.623-1.586,9.808-4.564,9.808-4.564,2.19-1.068.852,2.136-13.547,7.852-21.523,7.664Z" transform="translate(-2099.549 -734.426)" fill="#ff9d6c"/>
  <path id="Path_36726" data-name="Path 36726" d="M2316.1,445.721s1.6-4.738,8.566,2.043,12.516,24.777,12.516,24.777" transform="translate(-2076.981 -411.289)" fill="none" stroke="#1a4ea1" stroke-miterlimit="10" stroke-width="1"/>
  <path id="Path_36727" data-name="Path 36727" d="M2469.1,753.956c-.2,2.3,2.854,3.722,4.688,2.645,1.853-1.088,2.259-4.622.112-5.634C2471.8,749.978,2469.29,751.768,2469.1,753.956Z" transform="translate(-2202.693 -663.213)" fill="#ff9d6c"/>
  <path id="Path_36728" data-name="Path 36728" d="M2290.751,703.514c-.2,2.3,2.854,3.722,4.688,2.645,1.853-1.088,2.259-4.622.112-5.634C2293.452,699.536,2290.945,701.326,2290.751,703.514Zm-14.59-6.268a3.2,3.2,0,0,1-2.809.084,25.177,25.177,0,0,1,2.61-5.845,3.063,3.063,0,0,1,.312.126C2278.421,692.624,2278.015,696.157,2276.161,697.245Z" transform="translate(-2041.853 -614.564)" fill="#ff9d6c" opacity="0.5"/>
  <path id="Path_36729" data-name="Path 36729" d="M2116.37,1639.4s45.5,11.975,97.245-5.013" transform="translate(-1912.857 -1389.377)" fill="none" stroke="#20307b" stroke-miterlimit="10" stroke-width="7"/>
  <path id="Path_36730" data-name="Path 36730" d="M2013.055,1718.75s-53.47,49.293-49.293,69.9,22.532,64.61,22.532,64.61" transform="translate(-1787.264 -1458.697)" fill="none" stroke="#fff" stroke-linecap="round" stroke-miterlimit="10" stroke-width="2" stroke-dasharray="20"/>
  <path id="Path_36731" data-name="Path 36731" d="M2305.87,650.7a1.281,1.281,0,0,0,1.52.212,3.742,3.742,0,0,0,1.2-1.117c.776-.972,1.4-3.188-.636-2.912C2306.671,647.054,2304.909,649.531,2305.87,650.7Zm11.041,6.188a1.28,1.28,0,0,0,1.52.212,3.738,3.738,0,0,0,1.2-1.117c.776-.972,1.4-3.188-.636-2.912C2317.709,653.242,2315.948,655.719,2316.911,656.885Zm-10.063-14.531a3.293,3.293,0,0,1,1.68-.939,3.992,3.992,0,0,1,1.976.029,3.946,3.946,0,0,1,.942.4,3.633,3.633,0,0,1,.789.643,2.984,2.984,0,0,1,.792,1.779l-.076.047a5.571,5.571,0,0,0-.53-.679,4.562,4.562,0,0,0-.625-.586,4.228,4.228,0,0,0-1.526-.744,5.248,5.248,0,0,0-1.7-.176,6.575,6.575,0,0,0-.855.1,5.647,5.647,0,0,0-.836.206Zm12.488,4.981a3.293,3.293,0,0,1,1.919-.142,3.992,3.992,0,0,1,1.78.86,3.948,3.948,0,0,1,.686.76,3.637,3.637,0,0,1,.444.916,2.984,2.984,0,0,1-.032,1.947l-.088.011a5.614,5.614,0,0,0-.194-.839,4.586,4.586,0,0,0-.32-.795,4.228,4.228,0,0,0-1.07-1.319,5.249,5.249,0,0,0-1.466-.876,6.57,6.57,0,0,0-.818-.268,5.656,5.656,0,0,0-.845-.166Z" transform="translate(-2068.349 -573.33)" fill="#361029"/>
  <path id="Path_36732" data-name="Path 36732" d="M2284.62,781.7a8.606,8.606,0,0,0,4.009,2.212,14.456,14.456,0,0,0,7.2-.417" transform="translate(-2051.113 -688.699)" fill="none" stroke="#ff6029" stroke-linecap="round" stroke-miterlimit="10" stroke-width="3"/>
  <path id="Path_36733" data-name="Path 36733" d="M2300.35,718.949l-3.95,4.542,3.806,1.929Z" transform="translate(-2060.793 -637.131)" fill="#ff6029"/>
</svg>
