<svg xmlns="http://www.w3.org/2000/svg" width="177.113" height="125.43" viewBox="0 0 177.113 125.43">
  <g id="v-4" transform="translate(-25.02 -92.422)">
    <path id="Path_36751" data-name="Path 36751" d="M325.152,173.125,294.12,209.682l12.087,8.59,30.006-36.724Z" transform="translate(-165.928 -49.762)" fill="#fc7963"/>
    <path id="Path_36752" data-name="Path 36752" d="M206.687,92.422,197.568,94.6,196.4,115.823l5.743-1.371,11.744,50.379,4.714-1.125,4.714-1.125L211.572,112.2l5.743-1.371Z" transform="translate(-105.674)" fill="#a3bed8"/>
    <path id="Path_36753" data-name="Path 36753" d="M99.468,181.341a4.345,4.345,0,0,1-4.3-1.076L78.479,163.575l-16.69-16.691a4.344,4.344,0,0,1-1.076-4.3,14.214,14.214,0,0,0-.92-10.551,14.469,14.469,0,0,0-7.218-6.583c-3.314-1.427-8.25-2.484-13.131.444l7.981,7.981a5.214,5.214,0,0,1,.06,7.313l-2.61,2.7-2.7,2.61a5.214,5.214,0,0,1-7.313-.06l-7.981-7.982c-2.928,4.881-1.871,9.817-.444,13.131a14.467,14.467,0,0,0,6.582,7.218,14.213,14.213,0,0,0,10.551.92,4.345,4.345,0,0,1,4.3,1.076l16.691,16.691,16.69,16.69a4.345,4.345,0,0,1,1.076,4.3,14.214,14.214,0,0,0,.92,10.551,14.467,14.467,0,0,0,7.218,6.582c3.314,1.427,8.251,2.485,13.131-.444l-7.981-7.981a5.214,5.214,0,0,1-.06-7.312l2.61-2.7,2.7-2.61a5.214,5.214,0,0,1,7.313.06l7.982,7.98c2.928-4.88,1.871-9.815.444-13.131a14.467,14.467,0,0,0-6.582-7.218A14.213,14.213,0,0,0,99.468,181.341Zm48.584-62.373c4.63-2.861,11.746-4.829,21.609-1.12a19.035,19.035,0,0,1,5.037,2.88l9.807,7.7a3.968,3.968,0,0,1,1.488,2.645l.429,3.539a3.973,3.973,0,0,0,4.907,3.376l2.221-.555a3.973,3.973,0,0,1,3.4.718l3.521,2.739a4.294,4.294,0,0,1,.734,6.052l-8.828,11.182a4.294,4.294,0,0,1-5.948.775l-2.854-2.141a3.973,3.973,0,0,1-1.549-2.617l-.3-2.127a3.973,3.973,0,0,0-4.992-3.267l-2.171.6a9.214,9.214,0,0,1-8.2-1.674l-7.8-6.217a8.33,8.33,0,0,1-3.134-6.594c.03-3.4-.958-8.083-6.3-9.458A3.548,3.548,0,0,1,148.052,118.968Z" transform="translate(0 -14.424)" fill="#a3bed8"/>
    <path id="Path_36754" data-name="Path 36754" d="M53.206,258.535H209.073v6.351a5.636,5.636,0,0,1-5.636,5.636H58.843a5.636,5.636,0,0,1-5.636-5.636v-6.351Zm6.944,11.99H202.128v39.158a10.6,10.6,0,0,1-10.6,10.6H70.746a10.6,10.6,0,0,1-10.6-10.6V270.525Z" transform="translate(-17.379 -102.426)" fill="#ffb14a"/>
    <rect id="Rectangle_18639" data-name="Rectangle 18639" width="141.978" height="6.935" transform="translate(42.771 168.099)" fill="#d37231"/>
    <path id="Path_36755" data-name="Path 36755" d="M211.792,258.535h15.046V277.2a5.04,5.04,0,0,1-5.041,5.04h-4.965a5.04,5.04,0,0,1-5.04-5.04v-18.66Zm-82.409,0h15.046V277.2a5.04,5.04,0,0,1-5.04,5.04h-4.965a5.04,5.04,0,0,1-5.04-5.04Z" transform="translate(-64.35 -102.426)" fill="#425968"/>
  </g>
</svg>
