<svg xmlns="http://www.w3.org/2000/svg" width="17.301" height="15.884" viewBox="0 0 17.301 15.884">
  <path id="wishlist_icon" d="M8.45,15.484a.975.975,0,0,1-.653-.253c-.683-.615-1.341-1.193-1.922-1.7l0,0a36.2,36.2,0,0,1-4.2-4.056A6.584,6.584,0,0,1,0,5.231,5.534,5.534,0,0,1,1.341,1.515,4.485,4.485,0,0,1,4.721,0,4.173,4.173,0,0,1,7.377.944,5.527,5.527,0,0,1,8.45,2.1,5.527,5.527,0,0,1,9.524.944,4.173,4.173,0,0,1,12.18,0,4.485,4.485,0,0,1,15.56,1.515,5.534,5.534,0,0,1,16.9,5.231a6.583,6.583,0,0,1-1.676,4.24,36.2,36.2,0,0,1-4.2,4.056c-.582.51-1.241,1.089-1.925,1.705a.975.975,0,0,1-.653.253ZM4.721,1.02A3.519,3.519,0,0,0,2.069,2.206,4.5,4.5,0,0,0,.99,5.231,5.538,5.538,0,0,0,2.438,8.82a35.619,35.619,0,0,0,4.076,3.93l0,0c.583.512,1.244,1.092,1.932,1.711.692-.621,1.354-1.2,1.938-1.714a35.628,35.628,0,0,0,4.076-3.93,5.538,5.538,0,0,0,1.448-3.59,4.5,4.5,0,0,0-1.079-3.024A3.518,3.518,0,0,0,12.18,1.02a3.224,3.224,0,0,0-2.05.731A4.912,4.912,0,0,0,8.987,3.112a.616.616,0,0,1-1.074,0A4.907,4.907,0,0,0,6.771,1.75a3.223,3.223,0,0,0-2.05-.731Zm0,0" transform="translate(0.2 0.2)" fill="#949494" stroke="#949494" stroke-width="0.4"/>
</svg>
