<svg xmlns="http://www.w3.org/2000/svg" xmlns:xlink="http://www.w3.org/1999/xlink" width="1600" height="142" viewBox="0 0 1600 142">
  <defs>
    <clipPath id="clip-path">
      <rect id="Rectangle_17564" data-name="Rectangle 17564" width="1600" height="142" fill="#f9f9f9"/>
    </clipPath>
    <clipPath id="clip-path-2">
      <rect id="Rectangle_17563" data-name="Rectangle 17563" width="1665" height="932" transform="translate(0 -0.422)" fill="none"/>
    </clipPath>
    <linearGradient id="linear-gradient" x1="0.018" y1="0.511" x2="1.055" y2="0.511" gradientUnits="objectBoundingBox">
      <stop offset="0" stop-color="#b2b2b2"/>
      <stop offset="1" stop-color="#7a7a7a"/>
    </linearGradient>
    <linearGradient id="linear-gradient-2" y1="0.5" x2="1" y2="0.5" gradientUnits="objectBoundingBox">
      <stop offset="0" stop-color="#fff"/>
      <stop offset="1"/>
    </linearGradient>
    <linearGradient id="linear-gradient-3" x1="0.569" y1="0.617" x2="0.561" y2="0.353" xlink:href="#linear-gradient-2"/>
    <linearGradient id="linear-gradient-4" x1="-0.168" y1="0.657" x2="0.832" y2="0.657" xlink:href="#linear-gradient"/>
    <linearGradient id="linear-gradient-5" x1="-0.255" y1="0.512" x2="0.745" y2="0.512" xlink:href="#linear-gradient-2"/>
    <linearGradient id="linear-gradient-6" x1="0.243" y1="0.736" x2="0.233" y2="0.421" xlink:href="#linear-gradient-2"/>
    <linearGradient id="linear-gradient-7" x1="-1.019" y1="0.277" x2="-0.019" y2="0.277" xlink:href="#linear-gradient"/>
    <linearGradient id="linear-gradient-8" x1="-1.113" y1="0.14" x2="-0.113" y2="0.14" xlink:href="#linear-gradient-2"/>
    <linearGradient id="linear-gradient-9" x1="-0.68" y1="0.414" x2="-0.69" y2="0.099" xlink:href="#linear-gradient-2"/>
  </defs>
  <g id="bg-bread" transform="translate(-0.5 -213)">
    <rect id="Rectangle_17553" data-name="Rectangle 17553" width="1600" height="142" transform="translate(0.5 213)" fill="#f9f9f9"/>
    <g id="Mask_Group_82" data-name="Mask Group 82" transform="translate(0.5 213)" opacity="0.22" clip-path="url(#clip-path)">
      <g id="Group_20161" data-name="Group 20161" transform="translate(-32 -443.579)" opacity="0.48">
        <g id="BACKGROUND" transform="translate(0 0)">
          <rect id="Rectangle_17562" data-name="Rectangle 17562" width="1665" height="932" transform="translate(0 -0.422)" fill="#fff"/>
        </g>
        <g id="OBJECTS" transform="translate(0 0)">
          <g id="Group_20160" data-name="Group 20160" transform="translate(0 0)">
            <g id="Group_20159" data-name="Group 20159" clip-path="url(#clip-path-2)">
              <g id="Group_20156" data-name="Group 20156" transform="translate(-541.611 -373.224)" opacity="0.2">
                <path id="Path_22509" data-name="Path 22509" d="M2310-118q-7.536,13.276-15.078,26.551c-3.241-1.064-6.935-.772-9.526,1.922C2121.7,80.958,1957.6,251.4,1751.671,387.94c-106.563,70.655-223.323,130.906-348.142,176.048-131.763,47.658-272.5,76.775-414.157,94.339-199.869,24.787-405.138,27.212-606.2,12.477C179.394,655.866-25.049,622.117-217,561.9c-3.394-4.289-6.68-8.644-9.7-13.166-5.912-8.849-21.385-1.059-16.079,7.876,1.851,3.12,3.814,6.185,5.839,9.216a6.461,6.461,0,0,0,2.682,3.87c12.248,17.555,26.988,33.787,41.765,49.943,19.372,21.178,35.367,43.412,50.613,66.8,31.411,48.194,58.83,98.12,91.712,145.65,31.89,46.1,75.781,86.154,113.636,128.744,12.567,14.143,23.738,29.443,35.24,44.545-18.293-1.561-36.568-3.256-54.787-5.264-8.507-.938-10.509,11.534-2.029,12.567q33.986,4.134,68.14,7.225c14.692,18.308,30.738,35.653,51.43,49.439,10.325,6.877,27.1.832,23.212-11.324a29.46,29.46,0,0,0-8.34-13.153,12.929,12.929,0,0,0-10.749-3.652A214.228,214.228,0,0,1,146.538,1023c257.576,19.615,520.379-2.3,771.089-52.972,258.428-52.237,512.913-130.486,729.264-262.558,326.462-199.291,532.862-511.091,680.54-819.311C2331.46-120.255,2314.615-126.133,2310-118Z" transform="translate(243.875 268.845)" fill="#b1b1b1"/>
                <path id="Path_22510" data-name="Path 22510" d="M2270.124-121.19q-5.924,13.84-11.853,27.677c-3.352-.791-7-.194-9.255,2.7-142.689,183.264-285.785,366.526-474.528,519.521-97.666,79.175-206.714,148.844-325.565,204.151-125.469,58.386-262.062,99.073-400.933,128.335-195.949,41.3-399.917,60.79-601.726,62.859-204.545,2.091-411.975-14.478-610.115-58.416-3.885-3.985-7.672-8.047-11.213-12.293-6.933-8.317-21.405.727-15.067,9.171,2.213,2.951,4.527,5.839,6.9,8.685a6.757,6.757,0,0,0,3.128,3.626c14.263,16.453,30.858,31.376,47.472,46.22,21.785,19.462,40.337,40.258,58.279,62.266,36.963,45.34,70.165,92.743,108.513,137.3,37.189,43.213,85.611,79.423,128.326,118.65,14.179,13.026,27.106,27.321,40.344,41.393-18.39-.031-36.774-.2-55.142-.677-8.576-.227-9.091,12.351-.531,12.673q34.309,1.284,68.66,1.52c16.787,17,34.809,32.916,57.034,44.914,11.087,5.982,27.062-1.427,21.754-13.2a30.9,30.9,0,0,0-9.854-12.394,13.251,13.251,0,0,0-11.131-2.741,226.261,226.261,0,0,1-21.105-16.552c258.626-1.917,517.538-45.591,761-116.877,250.965-73.487,494.923-172.521,694.559-321.946C2009.32,529.905,2177.764,202.473,2288.2-116.513,2291.209-125.217,2273.753-129.665,2270.124-121.19Z" transform="translate(307.529 265.54)" fill="url(#linear-gradient)"/>
                <path id="Path_22511" data-name="Path 22511" d="M2208.034-182.1q-5.634,13.921-11.275,27.846c-3.368-.741-7-.089-9.193,2.839C2048.72,33.913,1909.46,219.24,1723.945,374.982c-96,80.591-203.579,151.847-321.26,208.887-124.233,60.215-259.953,102.894-398.2,134.194C809.435,762.222,605.9,784.7,404.17,789.728,199.7,794.815-8.047,781.29-207.073,740.254c-3.969-3.924-7.839-7.928-11.468-12.124-7.1-8.215-21.385,1.04-14.872,9.391,2.273,2.921,4.649,5.772,7.079,8.583a6.845,6.845,0,0,0,3.2,3.582c14.607,16.239,31.508,30.916,48.431,45.52,22.189,19.136,41.17,39.655,59.567,61.4C-77.226,901.4-43.045,948.3-3.772,992.292c38.086,42.66,87.254,78.154,130.781,116.754,14.45,12.816,27.674,26.918,41.2,40.794-18.384.234-36.77.337-55.144.128-8.578-.1-8.831,12.483-.266,12.676q34.329.79,68.682.514c17.14,16.749,35.491,32.4,57.959,44.073,11.211,5.822,27.028-1.82,21.478-13.514a31.2,31.2,0,0,0-10.114-12.247,13.307,13.307,0,0,0-11.184-2.575,228.42,228.42,0,0,1-21.449-16.245c258.548-5.7,516.508-53.167,758.448-128.005,249.4-77.155,491.249-179.753,687.739-332.075,296.487-229.854,458.08-559.705,561.842-880.259C2229.033-186.437,2211.487-190.625,2208.034-182.1Z" transform="translate(254.614 213.016)" fill="url(#linear-gradient-2)" style="mix-blend-mode: overlay;isolation: isolate"/>
                <path id="Path_22512" data-name="Path 22512" d="M2078.023-195.216q-3.286,14.44-6.575,28.882c-3.461-.342-6.951.722-8.645,3.878-106.981,199.621-214.364,399.294-372.446,575.009-81.8,90.936-176.611,173.955-283.765,244.067-113.126,74.019-240.511,132-372.278,178.992C848.406,901.924,650.528,947.746,451.556,976.068c-201.674,28.7-409.658,39.349-613.539,21.743-4.575-3.427-9.069-6.946-13.355-10.68-8.387-7.311-21.008,3.507-13.182,11.026,2.733,2.627,5.552,5.176,8.427,7.679a7.331,7.331,0,0,0,3.763,3.174c17.143,14.4,36.3,26.977,55.466,39.477,25.126,16.388,47.31,34.516,69.115,53.921,44.919,39.976,86.5,82.474,132.646,121.5,44.75,37.847,99.3,67.3,148.765,100.5,16.423,11.021,31.841,23.457,47.528,35.633-18.173,2.365-36.366,4.594-54.6,6.514-8.514.889-6.691,13.385,1.825,12.583q34.129-3.2,68.107-7.435c19.736,14.6,40.49,27.98,64.668,36.939,12.061,4.467,26.469-4.935,19.041-15.869a33.505,33.505,0,0,0-12.03-10.965,13.6,13.6,0,0,0-11.5-1.254,244.4,244.4,0,0,1-23.918-13.6c255.129-35.569,502.8-112.434,730.09-214.56,234.295-105.276,456.93-234.879,626.441-408.485,255.78-261.967,361.478-607.36,411.434-936.852C2098.105-201.939,2080.041-204.062,2078.023-195.216Z" transform="translate(308.407 200.871)" fill="url(#linear-gradient-3)" style="mix-blend-mode: overlay;isolation: isolate"/>
              </g>
              <g id="Group_20157" data-name="Group 20157" transform="translate(-108.714 93.503)" opacity="0.42">
                <path id="Path_22513" data-name="Path 22513" d="M-19.954,1329.25q7.539-13.277,15.078-26.551c3.241,1.066,6.935.772,9.526-1.924,163.7-170.485,327.8-340.93,533.728-477.468C644.942,752.654,761.7,692.4,886.523,647.259c131.762-47.658,272.5-76.775,414.155-94.337,199.869-24.787,405.138-27.214,606.2-12.477,203.781,14.937,408.226,48.687,600.181,108.9,3.392,4.289,6.678,8.645,9.7,13.166,5.911,8.849,21.383,1.059,16.077-7.874-1.852-3.122-3.814-6.185-5.836-9.216a6.455,6.455,0,0,0-2.684-3.87c-12.248-17.557-26.986-33.789-41.764-49.943-19.372-21.18-35.367-43.412-50.614-66.8-31.41-48.2-58.83-98.122-91.712-145.652-31.888-46.1-75.781-86.152-113.636-128.744-12.565-14.143-23.739-29.441-35.238-44.543,18.291,1.559,36.565,3.256,54.785,5.264,8.507.936,10.512-11.536,2.029-12.567q-33.985-4.136-68.14-7.227c-14.692-18.309-30.738-35.651-51.431-49.437-10.323-6.879-27.095-.834-23.21,11.324a29.45,29.45,0,0,0,8.338,13.151,12.933,12.933,0,0,0,10.751,3.652,214.312,214.312,0,0,1,19.041,18.23c-257.578-19.615-520.38,2.3-771.089,52.97C1114,293.463,859.512,371.71,643.159,503.782,316.7,703.074,110.3,1014.873-37.379,1323.091-41.41,1331.5-24.565,1337.381-19.954,1329.25Z" transform="translate(62.146 26.652)" fill="#b1b1b1"/>
                <path id="Path_22514" data-name="Path 22514" d="M-30.456,1412.368q5.927-13.84,11.852-27.677c3.354.791,7,.193,9.255-2.7,142.692-183.264,285.787-366.526,474.528-519.523,97.666-79.173,206.714-148.842,325.565-204.148,125.469-58.388,262.065-99.073,400.933-128.336,195.949-41.3,399.916-60.79,601.726-62.859,204.547-2.091,411.975,14.478,610.115,58.416,3.885,3.986,7.672,8.049,11.213,12.293,6.933,8.319,21.405-.728,15.067-9.171-2.214-2.951-4.527-5.839-6.9-8.685a6.782,6.782,0,0,0-3.128-3.626c-14.265-16.453-30.86-31.374-47.474-46.22-21.785-19.462-40.335-40.258-58.279-62.266-36.963-45.34-70.165-92.743-108.513-137.3-37.189-43.213-85.609-79.421-128.326-118.65-14.179-13.026-27.106-27.321-40.342-41.391,18.388.03,36.772.2,55.14.675,8.576.227,9.091-12.351.533-12.673Q2058.2,97.24,2023.849,97c-16.788-16.995-34.809-32.914-57.034-44.914-11.086-5.98-27.061,1.427-21.751,13.2a30.875,30.875,0,0,0,9.852,12.394,13.252,13.252,0,0,0,11.131,2.741,226.659,226.659,0,0,1,21.107,16.552c-258.628,1.918-517.538,45.591-761,116.877C975.187,287.34,731.231,386.374,531.592,535.8,230.35,761.273,61.906,1088.705-48.527,1407.692-51.541,1416.394-34.084,1420.843-30.456,1412.368Z" transform="translate(48.875 -49.973)" fill="url(#linear-gradient-4)"/>
                <path id="Path_22515" data-name="Path 22515" d="M21.377,1486.717q5.634-13.921,11.275-27.846c3.37.743,7,.089,9.2-2.839,138.847-185.331,278.1-370.656,463.621-526.4,96-80.591,203.579-151.846,321.258-208.887,124.235-60.215,259.953-102.892,398.2-134.194,195.054-44.16,398.584-66.636,600.321-71.664,204.472-5.087,412.217,8.436,611.243,49.472,3.967,3.924,7.836,7.928,11.466,12.124,7.1,8.215,21.385-1.042,14.871-9.392-2.271-2.919-4.646-5.77-7.079-8.579a6.839,6.839,0,0,0-3.2-3.584c-14.607-16.24-31.508-30.916-48.431-45.52-22.187-19.136-41.17-39.654-59.566-61.4-37.906-44.793-72.087-91.7-111.359-135.69-38.088-42.66-87.256-78.154-130.781-116.754-14.45-12.814-27.674-26.916-41.2-40.792,18.384-.236,36.772-.339,55.144-.13,8.578.1,8.833-12.483.266-12.676q-34.325-.787-68.679-.514c-17.14-16.749-35.493-32.4-57.961-44.073-11.211-5.822-27.028,1.822-21.479,13.516a31.23,31.23,0,0,0,10.115,12.247,13.305,13.305,0,0,0,11.184,2.573,228.452,228.452,0,0,1,21.449,16.245c-258.548,5.7-516.508,53.167-758.448,128.007-249.4,77.153-491.249,179.751-687.739,332.073C268.57,831.9,106.978,1161.75,3.214,1482.3.379,1491.052,17.925,1495.24,21.377,1486.717Z" transform="translate(112.045 -10.887)" fill="url(#linear-gradient-5)" style="mix-blend-mode: overlay;isolation: isolate"/>
                <path id="Path_22516" data-name="Path 22516" d="M47.566,888.552q1.832-8.049,3.666-16.1a4.67,4.67,0,0,0,4.817-2.161C115.667,759.052,175.509,647.78,263.6,549.858A808.6,808.6,0,0,1,421.738,413.845C484.782,372.6,555.77,340.286,629.2,314.1c103.6-36.954,213.874-62.49,324.757-78.272,112.389-16,228.292-21.929,341.91-12.118,2.55,1.91,5.054,3.871,7.443,5.952,4.674,4.074,11.708-1.953,7.346-6.145-1.523-1.464-3.094-2.885-4.7-4.278a4.085,4.085,0,0,0-2.1-1.77c-9.554-8.022-20.231-15.034-30.91-22a323.356,323.356,0,0,1-38.516-30.05c-25.033-22.277-48.206-45.961-73.922-67.709-24.937-21.09-55.334-37.507-82.9-56-9.151-6.142-17.744-13.073-26.485-19.858,10.126-1.318,20.264-2.559,30.426-3.63,4.743-.5,3.728-7.459-1.018-7.012q-19.019,1.781-37.954,4.144c-11-8.138-22.564-15.594-36.038-20.586-6.721-2.49-14.751,2.751-10.611,8.845a18.664,18.664,0,0,0,6.705,6.109,7.573,7.573,0,0,0,6.41.7A136.339,136.339,0,0,1,1022.377,18C880.2,37.82,742.178,80.653,615.515,137.566,484.95,196.233,360.881,268.458,266.415,365.2,123.877,511.192,64.973,703.67,37.135,887.289,36.375,892.3,46.443,893.482,47.566,888.552Z" transform="translate(723.187 124.996)" fill="url(#linear-gradient-6)" style="mix-blend-mode: overlay;isolation: isolate"/>
              </g>
              <g id="Group_20158" data-name="Group 20158" transform="translate(946.834 249.143)" opacity="0.2">
                <path id="Path_22517" data-name="Path 22517" d="M455.522,1468.744q7.539-13.28,15.08-26.553c3.239,1.068,6.933.774,9.526-1.924,163.695-170.482,327.8-340.929,533.728-477.468C1120.42,892.148,1237.182,831.9,1362,786.753c131.762-47.66,272.5-76.777,414.153-94.339,199.869-24.787,405.138-27.212,606.2-12.475,203.781,14.935,408.224,48.685,600.179,108.9,3.394,4.289,6.679,8.646,9.7,13.166,5.912,8.849,21.385,1.059,16.079-7.874-1.852-3.122-3.814-6.185-5.836-9.216a6.474,6.474,0,0,0-2.684-3.87c-12.248-17.557-26.988-33.785-41.764-49.943-19.371-21.179-35.366-43.412-50.615-66.8-31.408-48.2-58.829-98.12-91.709-145.65-31.888-46.1-75.781-86.154-113.639-128.746-12.565-14.139-23.736-29.439-35.238-44.542,18.292,1.557,36.568,3.256,54.787,5.262,8.507.938,10.509-11.534,2.03-12.567q-33.986-4.133-68.14-7.227c-14.692-18.307-30.738-35.651-51.43-49.437-10.325-6.877-27.1-.832-23.21,11.324a29.47,29.47,0,0,0,8.336,13.153,12.927,12.927,0,0,0,10.751,3.651,214.2,214.2,0,0,1,19.041,18.23c-257.576-19.615-520.379,2.3-771.088,52.974-258.428,52.235-512.914,130.482-729.264,262.554C792.175,842.568,585.773,1154.368,438.1,1462.586,434.068,1471,450.913,1476.873,455.522,1468.744Z" transform="translate(-413.329 -8.938)" fill="#b1b1b1"/>
                <path id="Path_22518" data-name="Path 22518" d="M445.02,1551.862q5.927-13.84,11.855-27.677c3.352.789,7,.193,9.253-2.7,142.691-183.264,285.789-366.528,474.53-519.523,97.666-79.175,206.714-148.844,325.565-204.149,125.469-58.388,262.062-99.071,400.933-128.337,195.949-41.3,399.917-60.79,601.726-62.857,204.547-2.093,411.975,14.478,610.115,58.416,3.885,3.984,7.672,8.047,11.213,12.291,6.933,8.319,21.4-.727,15.067-9.169-2.213-2.951-4.526-5.839-6.9-8.685a6.756,6.756,0,0,0-3.128-3.626c-14.263-16.455-30.858-31.376-47.472-46.222-21.785-19.46-40.335-40.256-58.279-62.266-36.965-45.338-70.165-92.739-108.513-137.3-37.189-43.215-85.612-79.423-128.326-118.652-14.181-13.026-27.106-27.32-40.344-41.391,18.388.032,36.774.2,55.142.677,8.573.227,9.091-12.351.531-12.673q-34.305-1.284-68.66-1.52c-16.787-16.995-34.809-32.916-57.036-44.914-11.084-5.982-27.06,1.427-21.751,13.2a30.914,30.914,0,0,0,9.854,12.394,13.25,13.25,0,0,0,11.129,2.741,226.017,226.017,0,0,1,21.108,16.552c-258.628,1.916-517.538,45.591-761,116.875-250.965,73.487-494.918,172.523-694.557,321.946-301.245,225.474-469.686,552.907-580.121,871.9C423.935,1555.889,441.393,1560.338,445.02,1551.862Z" transform="translate(-426.601 -85.562)" fill="url(#linear-gradient-7)"/>
                <path id="Path_22519" data-name="Path 22519" d="M496.854,1626.209q5.631-13.921,11.273-27.844c3.37.743,7,.088,9.2-2.841,138.844-185.327,278.1-370.657,463.621-526.4,96-80.593,203.579-151.847,321.26-208.888,124.23-60.215,259.949-102.893,398.193-134.194,195.054-44.16,398.585-66.636,600.321-71.662,204.469-5.089,412.215,8.434,611.244,49.47,3.967,3.924,7.836,7.928,11.466,12.126,7.1,8.213,21.385-1.042,14.872-9.394-2.271-2.917-4.648-5.77-7.082-8.579a6.831,6.831,0,0,0-3.2-3.584c-14.607-16.24-31.508-30.914-48.431-45.52-22.187-19.137-41.17-39.654-59.567-61.4-37.908-44.793-72.087-91.7-111.359-135.686-38.09-42.664-87.256-78.155-130.783-116.756-14.448-12.816-27.672-26.918-41.2-40.794,18.384-.236,36.77-.337,55.144-.128,8.578.1,8.831-12.483.266-12.678q-34.328-.787-68.682-.512c-17.138-16.749-35.491-32.4-57.959-44.073-11.211-5.822-27.028,1.82-21.478,13.514a31.188,31.188,0,0,0,10.114,12.247,13.307,13.307,0,0,0,11.185,2.575,228.767,228.767,0,0,1,21.449,16.245c-258.548,5.7-516.508,53.167-758.45,128.005-249.393,77.154-491.247,179.753-687.737,332.073C744.045,971.395,582.455,1301.244,478.691,1621.8,475.856,1630.545,493.4,1634.735,496.854,1626.209Z" transform="translate(-363.43 -46.477)" fill="url(#linear-gradient-8)" style="mix-blend-mode: overlay;isolation: isolate"/>
                <path id="Path_22520" data-name="Path 22520" d="M531.362,1738.616q3.29-14.437,6.578-28.883c3.461.342,6.951-.72,8.647-3.877,106.979-199.621,214.362-399.294,372.444-575.009,81.806-90.934,176.611-173.953,283.762-244.065,113.128-74.021,240.513-132,372.28-178.994,185.908-66.311,383.786-112.132,582.759-140.455,201.674-28.706,409.658-39.35,613.539-21.743,4.573,3.427,9.069,6.946,13.353,10.68,8.389,7.309,21.01-3.505,13.184-11.024q-4.1-3.941-8.427-7.679a7.337,7.337,0,0,0-3.761-3.176c-17.145-14.4-36.3-26.975-55.468-39.477-25.126-16.39-47.308-34.518-69.115-53.921-44.919-39.977-86.5-82.474-132.648-121.5-44.749-37.847-99.293-67.3-148.764-100.5-16.423-11.02-31.841-23.457-47.527-35.633,18.173-2.367,36.363-4.594,54.6-6.514,8.511-.891,6.691-13.385-1.825-12.585q-34.129,3.2-68.109,7.437c-19.733-14.6-40.488-27.982-64.668-36.939-12.059-4.467-26.467,4.934-19.041,15.869a33.55,33.55,0,0,0,12.032,10.965,13.6,13.6,0,0,0,11.5,1.254,244.673,244.673,0,0,1,23.918,13.6c-255.132,35.57-502.8,112.434-730.092,214.56C1316.226,496.287,1093.59,625.89,924.077,799.5,668.3,1061.462,562.6,1406.855,512.643,1736.349,511.282,1745.34,529.346,1747.461,531.362,1738.616Z" transform="translate(-321.721 -133.623)" fill="url(#linear-gradient-9)" style="mix-blend-mode: overlay;isolation: isolate"/>
              </g>
            </g>
          </g>
        </g>
      </g>
    </g>
  </g>
</svg>
